<?xml version="1.0" encoding="utf-8"?>
<!-- Generator: Adobe Illustrator 18.1.1, SVG Export Plug-In . SVG Version: 6.00 Build 0)  -->
<svg version="1.1" id="Layer_1" xmlns="http://www.w3.org/2000/svg" xmlns:xlink="http://www.w3.org/1999/xlink" x="0px" y="0px"
	 viewBox="0 0 651 1213.9" enable-background="new 0 0 651 1213.9" xml:space="preserve">
<g>
	<g>
		<g>
			<defs>
				<rect id="SVGID_1_" y="131.9" width="651" height="1082"/>
			</defs>
			<clipPath id="SVGID_2_">
				<use xlink:href="#SVGID_1_"  overflow="visible"/>
			</clipPath>
			<rect x="2" y="133.9" clip-path="url(#SVGID_2_)" fill="#FFFFFF" width="647.8" height="43.7"/>
			<rect x="2" y="177.6" clip-path="url(#SVGID_2_)" fill="#FFFFFF" width="81" height="47.4"/>
			<rect x="83" y="177.6" clip-path="url(#SVGID_2_)" fill="#FFFFFF" width="81" height="47.4"/>
			<rect x="163.9" y="177.6" clip-path="url(#SVGID_2_)" fill="#FFFFFF" width="81" height="47.4"/>
			<rect x="244.9" y="177.6" clip-path="url(#SVGID_2_)" fill="#FFFFFF" width="81" height="47.4"/>
			<rect x="325.9" y="177.6" clip-path="url(#SVGID_2_)" fill="#FFFFFF" width="81" height="47.4"/>
			<rect x="406.8" y="177.6" clip-path="url(#SVGID_2_)" fill="#FFFFFF" width="81" height="47.4"/>
			<rect x="487.8" y="177.6" clip-path="url(#SVGID_2_)" fill="#FFFFFF" width="81" height="47.4"/>
			<rect x="568.8" y="177.6" clip-path="url(#SVGID_2_)" fill="#FFFFFF" width="81" height="47.4"/>
			<rect x="2" y="225" clip-path="url(#SVGID_2_)" fill="#FFFFFF" width="81" height="986.8"/>
			<rect x="83" y="225" clip-path="url(#SVGID_2_)" fill="#FFFFFF" width="81" height="986.8"/>
			<rect x="163.9" y="225" clip-path="url(#SVGID_2_)" fill="#FFFFFF" width="81" height="986.8"/>
			<rect x="244.9" y="225" clip-path="url(#SVGID_2_)" fill="#FFFFFF" width="81" height="986.8"/>
			<rect x="325.9" y="225" clip-path="url(#SVGID_2_)" fill="#FFFFFF" width="81" height="986.8"/>
			<rect x="406.8" y="225" clip-path="url(#SVGID_2_)" fill="#FFFFFF" width="81" height="986.8"/>
			<rect x="487.8" y="225" clip-path="url(#SVGID_2_)" fill="#FFFFFF" width="81" height="986.8"/>
			<rect x="568.8" y="225" clip-path="url(#SVGID_2_)" fill="#FFFFFF" width="81" height="986.8"/>
		</g>
		<g>
			<defs>
				<rect id="SVGID_3_" x="2.1" y="134" width="647.5" height="43.5"/>
			</defs>
			<clipPath id="SVGID_4_">
				<use xlink:href="#SVGID_3_"  overflow="visible"/>
			</clipPath>
			<g clip-path="url(#SVGID_4_)">
				<text transform="matrix(1 0 0 1 243.625 153.299)" font-family="'Helvetica'" font-size="16">Home (</text>
			</g>
			<g clip-path="url(#SVGID_4_)">
				<text transform="matrix(1 0 0 1 296.0781 153.299)"><tspan x="0" y="0" font-family="'Helvetica'" font-size="16">ww</tspan><tspan x="23.1" y="0" font-family="'Helvetica'" font-size="16">w</tspan><tspan x="33.8" y="0" font-family="'Helvetica'" font-size="16">.ﬁtnyc.edu</tspan></text>
			</g>
			<g clip-path="url(#SVGID_4_)">
				<text transform="matrix(1 0 0 1 402.7969 153.299)" font-family="'Helvetica'" font-size="16">)</text>
			</g>
			
				<line clip-path="url(#SVGID_4_)" fill="none" stroke="#000000" stroke-width="0.7891" stroke-miterlimit="10" x1="296.1" y1="154.5" x2="402.8" y2="154.5"/>
		</g>
		<g>
			<defs>
				<rect id="SVGID_5_" x="2.1" y="177.7" width="80.7" height="47.2"/>
			</defs>
			<clipPath id="SVGID_6_">
				<use xlink:href="#SVGID_5_"  overflow="visible"/>
			</clipPath>
			<g clip-path="url(#SVGID_6_)">
				<text transform="matrix(1 0 0 1 26.8047 192.946)" font-family="'Helvetica'" font-size="12">About</text>
			</g>
		</g>
		<g>
			<defs>
				<rect id="SVGID_7_" x="83.1" y="177.7" width="80.7" height="47.2"/>
			</defs>
			<clipPath id="SVGID_8_">
				<use xlink:href="#SVGID_7_"  overflow="visible"/>
			</clipPath>
			<g clip-path="url(#SVGID_8_)">
				<text transform="matrix(1 0 0 1 94.1094 192.946)" font-family="'Helvetica'" font-size="12">Academics</text>
			</g>
		</g>
		<g>
			<defs>
				<rect id="SVGID_9_" x="164.1" y="177.7" width="80.7" height="47.2"/>
			</defs>
			<clipPath id="SVGID_10_">
				<use xlink:href="#SVGID_9_"  overflow="visible"/>
			</clipPath>
			<g clip-path="url(#SVGID_10_)">
				<text transform="matrix(1 0 0 1 173.7451 192.946)" font-family="'Helvetica'" font-size="12">Admissions</text>
			</g>
		</g>
		<g>
			<defs>
				<rect id="SVGID_11_" x="245" y="177.7" width="80.7" height="47.2"/>
			</defs>
			<clipPath id="SVGID_12_">
				<use xlink:href="#SVGID_11_"  overflow="visible"/>
			</clipPath>
			<g clip-path="url(#SVGID_12_)">
				<text transform="matrix(1 0 0 1 251.708 192.946)" font-family="'Helvetica'" font-size="12">Campus Life</text>
			</g>
		</g>
		<g>
			<defs>
				<rect id="SVGID_13_" x="326" y="177.7" width="80.7" height="47.2"/>
			</defs>
			<clipPath id="SVGID_14_">
				<use xlink:href="#SVGID_13_"  overflow="visible"/>
			</clipPath>
			<g clip-path="url(#SVGID_14_)">
				<text transform="matrix(1 0 0 1 331.5693 192.946)"><tspan x="0" y="0" font-family="'Helvetica'" font-size="12">GIVE</tspan><tspan x="28.7" y="0" font-family="'Helvetica'" font-size="12"> T</tspan><tspan x="38.9" y="0" font-family="'Helvetica'" font-size="12">O FIT</tspan></text>
			</g>
		</g>
		<g>
			<defs>
				<rect id="SVGID_15_" x="407" y="177.7" width="80.7" height="47.2"/>
			</defs>
			<clipPath id="SVGID_16_">
				<use xlink:href="#SVGID_15_"  overflow="visible"/>
			</clipPath>
			<g clip-path="url(#SVGID_16_)">
				<text transform="matrix(1 0 0 1 428.666 192.946)" font-family="'Helvetica'" font-size="12">My FIT</text>
			</g>
		</g>
		<g>
			<defs>
				<rect id="SVGID_17_" x="487.9" y="177.7" width="80.7" height="47.2"/>
			</defs>
			<clipPath id="SVGID_18_">
				<use xlink:href="#SVGID_17_"  overflow="visible"/>
			</clipPath>
			<g clip-path="url(#SVGID_18_)">
				<text transform="matrix(1 0 0 1 493.2842 192.946)" font-family="'Helvetica'" font-size="12">The Museum </text>
			</g>
			<g clip-path="url(#SVGID_18_)">
				<text transform="matrix(1 0 0 1 512.6289 206.946)" font-family="'Helvetica'" font-size="12">at FIT</text>
			</g>
		</g>
		<g>
			<defs>
				<rect id="SVGID_19_" x="568.9" y="177.7" width="80.7" height="47.2"/>
			</defs>
			<clipPath id="SVGID_20_">
				<use xlink:href="#SVGID_19_"  overflow="visible"/>
			</clipPath>
			<g clip-path="url(#SVGID_20_)">
				<text transform="matrix(1 0 0 1 579.251 192.946)" font-family="'Helvetica'" font-size="12">Information</text>
			</g>
		</g>
		<g>
			<defs>
				<rect id="SVGID_21_" x="83.1" y="225.1" width="80.7" height="986.5"/>
			</defs>
			<clipPath id="SVGID_22_">
				<use xlink:href="#SVGID_21_"  overflow="visible"/>
			</clipPath>
			<g clip-path="url(#SVGID_22_)">
				<text transform="matrix(1 0 0 1 87.0938 238.0443)"><tspan x="0" y="0" font-family="'Helvetica'" font-size="9">School of</tspan><tspan x="37.5" y="0" font-family="'Helvetica'" font-size="9"> </tspan><tspan x="39.5" y="0" font-family="'Helvetica'" font-size="9">A</tspan></text>
			</g>
			<g clip-path="url(#SVGID_22_)">
				<text transform="matrix(1 0 0 1 87.0938 249.0443)" font-family="'Helvetica'" font-size="9">rt and Design</text>
			</g>
			<g clip-path="url(#SVGID_22_)">
				<text transform="matrix(1 0 0 1 87.0938 283.0443)" font-family="'Helvetica'" font-size="9">Jay and Patty </text>
			</g>
			<g clip-path="url(#SVGID_22_)">
				<text transform="matrix(1 0 0 1 87.0938 294.0443)" font-family="'Helvetica'" font-size="9">Baker School of </text>
			</g>
			<g clip-path="url(#SVGID_22_)">
				<text transform="matrix(1 0 0 1 87.0938 305.0443)" font-family="'Helvetica'" font-size="9">Business and </text>
			</g>
			<g clip-path="url(#SVGID_22_)">
				<text transform="matrix(1 0 0 1 87.0938 316.0443)"><tspan x="0" y="0" font-family="'Helvetica'" font-size="9">T</tspan><tspan x="4.5" y="0" font-family="'Helvetica'" font-size="9">echnology</tspan></text>
			</g>
			<g clip-path="url(#SVGID_22_)">
				<text transform="matrix(1 0 0 1 87.0938 351.0443)" font-family="'Helvetica'" font-size="9">School of Liberal </text>
			</g>
			<g clip-path="url(#SVGID_22_)">
				<text transform="matrix(1 0 0 1 87.0938 362.0443)" font-family="'Helvetica'" font-size="9">Arts</text>
			</g>
			<g clip-path="url(#SVGID_22_)">
				<text transform="matrix(1 0 0 1 87.0938 397.0443)" font-family="'Helvetica'" font-size="9">School of </text>
			</g>
			<g clip-path="url(#SVGID_22_)">
				<text transform="matrix(1 0 0 1 87.0938 408.0443)" font-family="'Helvetica'" font-size="9">Graduate Studies</text>
			</g>
			<g clip-path="url(#SVGID_22_)">
				<text transform="matrix(1 0 0 1 87.0938 443.0443)" font-family="'Helvetica'" font-size="9">Center for </text>
			</g>
			<g clip-path="url(#SVGID_22_)">
				<text transform="matrix(1 0 0 1 87.0938 454.0443)" font-family="'Helvetica'" font-size="9">Continuing and </text>
			</g>
			<g clip-path="url(#SVGID_22_)">
				<text transform="matrix(1 0 0 1 87.0938 465.0443)" font-family="'Helvetica'" font-size="9">Professional </text>
			</g>
			<g clip-path="url(#SVGID_22_)">
				<text transform="matrix(1 0 0 1 87.0938 476.0443)" font-family="'Helvetica'" font-size="9">Studies</text>
			</g>
			<g clip-path="url(#SVGID_22_)">
				<text transform="matrix(1 0 0 1 87.0938 511.0443)" font-family="'Helvetica'" font-size="9">Undergraduate </text>
			</g>
			<g clip-path="url(#SVGID_22_)">
				<text transform="matrix(1 0 0 1 87.0938 522.0443)" font-family="'Helvetica'" font-size="9">Programs</text>
			</g>
			<g clip-path="url(#SVGID_22_)">
				<text transform="matrix(1 0 0 1 87.0938 557.0443)" font-family="'Helvetica'" font-size="9">Undergraduate </text>
			</g>
			<g clip-path="url(#SVGID_22_)">
				<text transform="matrix(1 0 0 1 87.0938 568.0443)" font-family="'Helvetica'" font-size="9">Catalog</text>
			</g>
			<g clip-path="url(#SVGID_22_)">
				<text transform="matrix(1 0 0 1 87.0938 603.0443)" font-family="'Helvetica'" font-size="9">Graduate </text>
			</g>
			<g clip-path="url(#SVGID_22_)">
				<text transform="matrix(1 0 0 1 87.0938 614.0443)" font-family="'Helvetica'" font-size="9">Programs</text>
			</g>
			<g clip-path="url(#SVGID_22_)">
				<text transform="matrix(1 0 0 1 87.0938 649.0443)" font-family="'Helvetica'" font-size="9">Certiﬁcate </text>
			</g>
			<g clip-path="url(#SVGID_22_)">
				<text transform="matrix(1 0 0 1 87.0938 660.0443)" font-family="'Helvetica'" font-size="9">Programs</text>
			</g>
			<g clip-path="url(#SVGID_22_)">
				<text transform="matrix(1 0 0 1 87.0938 695.0443)" font-family="'Helvetica'" font-size="9">Presidential </text>
			</g>
			<g clip-path="url(#SVGID_22_)">
				<text transform="matrix(1 0 0 1 87.0938 706.0443)" font-family="'Helvetica'" font-size="9">Scholars (Honors </text>
			</g>
			<g clip-path="url(#SVGID_22_)">
				<text transform="matrix(1 0 0 1 87.0938 717.0443)" font-family="'Helvetica'" font-size="9">Program)</text>
			</g>
			<g clip-path="url(#SVGID_22_)">
				<text transform="matrix(1 0 0 1 87.0938 752.0443)"><tspan x="0" y="0" font-family="'Helvetica'" font-size="9">Study</tspan><tspan x="23" y="0" font-family="'Helvetica'" font-size="9"> </tspan><tspan x="25" y="0" font-family="'Helvetica'" font-size="9">Abroad</tspan></text>
			</g>
			<g clip-path="url(#SVGID_22_)">
				<text transform="matrix(1 0 0 1 87.0938 787.0443)" font-family="'Helvetica'" font-size="9">Registrar</text>
			</g>
			<g clip-path="url(#SVGID_22_)">
				<text transform="matrix(1 0 0 1 87.0938 822.0443)" font-family="'Helvetica'" font-size="9">Academic </text>
			</g>
			<g clip-path="url(#SVGID_22_)">
				<text transform="matrix(1 0 0 1 87.0938 833.0443)" font-family="'Helvetica'" font-size="9">Advisement </text>
			</g>
			<g clip-path="url(#SVGID_22_)">
				<text transform="matrix(1 0 0 1 87.0938 844.0443)" font-family="'Helvetica'" font-size="9">Center</text>
			</g>
			<g clip-path="url(#SVGID_22_)">
				<text transform="matrix(1 0 0 1 87.0938 879.0443)" font-family="'Helvetica'" font-size="9">Library</text>
			</g>
			<g clip-path="url(#SVGID_22_)">
				<text transform="matrix(1 0 0 1 87.0938 914.0443)" font-family="'Helvetica'" font-size="9">Academic Skills</text>
			</g>
			<g clip-path="url(#SVGID_22_)">
				<text transform="matrix(1 0 0 1 87.0938 947.0443)"><tspan x="0" y="0" font-family="'Helvetica'" font-size="9">T</tspan><tspan x="5.2" y="0" font-family="'Helvetica'" font-size="9">utoring Center</tspan></text>
			</g>
			<g clip-path="url(#SVGID_22_)">
				<text transform="matrix(1 0 0 1 87.0938 982.0443)" font-family="'Helvetica'" font-size="9">Career and </text>
			</g>
			<g clip-path="url(#SVGID_22_)">
				<text transform="matrix(1 0 0 1 87.0938 993.0443)" font-family="'Helvetica'" font-size="9">Internship Center</text>
			</g>
			<g clip-path="url(#SVGID_22_)">
				<text transform="matrix(1 0 0 1 87.0938 1028.0443)"><tspan x="0" y="0" font-family="'Helvetica'" font-size="9">W</tspan><tspan x="8.3" y="0" font-family="'Helvetica'" font-size="9">riting Studio</tspan></text>
			</g>
			<g clip-path="url(#SVGID_22_)">
				<text transform="matrix(1 0 0 1 87.0938 1063.0443)" font-family="'Helvetica'" font-size="9">Faculty</text>
			</g>
			<g clip-path="url(#SVGID_22_)">
				<text transform="matrix(1 0 0 1 87.0938 1074.0443)" font-family="'Helvetica'" font-size="9">Center for </text>
			</g>
			<g clip-path="url(#SVGID_22_)">
				<text transform="matrix(1 0 0 1 87.0938 1085.0443)" font-family="'Helvetica'" font-size="9">Excellence in </text>
			</g>
			<g clip-path="url(#SVGID_22_)">
				<text transform="matrix(1 0 0 1 87.0938 1096.0443)"><tspan x="0" y="0" font-family="'Helvetica'" font-size="9">T</tspan><tspan x="4.5" y="0" font-family="'Helvetica'" font-size="9">eaching</tspan></text>
			</g>
			<g clip-path="url(#SVGID_22_)">
				<text transform="matrix(1 0 0 1 87.0938 1107.0443)" font-family="'Helvetica'" font-size="9">Online Learning</text>
			</g>
			<g clip-path="url(#SVGID_22_)">
				<text transform="matrix(1 0 0 1 87.0938 1142.0443)"><tspan x="0" y="0" font-family="'Helvetica'" font-size="9">All</tspan><tspan x="10" y="0" font-family="'Helvetica'" font-size="9"> </tspan><tspan x="12" y="0" font-family="'Helvetica'" font-size="9">Academic </tspan></text>
			</g>
			<g clip-path="url(#SVGID_22_)">
				<text transform="matrix(1 0 0 1 87.0938 1153.0443)" font-family="'Helvetica'" font-size="9">Resource</text>
			</g>
			<g clip-path="url(#SVGID_22_)">
				<text transform="matrix(1 0 0 1 125.6118 1153.0443)" font-family="'Helvetica'" font-size="9">s</text>
			</g>
			<g clip-path="url(#SVGID_22_)">
				<text transform="matrix(1 0 0 1 87.0938 1186.0443)"><tspan x="0" y="0" font-family="'Helvetica'" font-size="9">V</tspan><tspan x="5.9" y="0" font-family="'Helvetica'" font-size="9">isit FIT</tspan></text>
			</g>
		</g>
		<g>
			<defs>
				<rect id="SVGID_23_" x="164.1" y="225.1" width="80.7" height="986.5"/>
			</defs>
			<clipPath id="SVGID_24_">
				<use xlink:href="#SVGID_23_"  overflow="visible"/>
			</clipPath>
			<g clip-path="url(#SVGID_24_)">
				<text transform="matrix(1 0 0 1 168.0625 238.0443)" font-family="'Helvetica'" font-size="9">Undergraduate </text>
			</g>
			<g clip-path="url(#SVGID_24_)">
				<text transform="matrix(1 0 0 1 168.0625 249.0443)" font-family="'Helvetica'" font-size="9">Admissions</text>
			</g>
			<g clip-path="url(#SVGID_24_)">
				<text transform="matrix(1 0 0 1 168.0625 284.0443)" font-family="'Helvetica'" font-size="9">Undergraduate </text>
			</g>
			<g clip-path="url(#SVGID_24_)">
				<text transform="matrix(1 0 0 1 168.0625 295.0443)" font-family="'Helvetica'" font-size="9">International </text>
			</g>
			<g clip-path="url(#SVGID_24_)">
				<text transform="matrix(1 0 0 1 168.0625 306.0443)" font-family="'Helvetica'" font-size="9">Admissions</text>
			</g>
			<g clip-path="url(#SVGID_24_)">
				<text transform="matrix(1 0 0 1 168.0625 341.0443)" font-family="'Helvetica'" font-size="9">Graduate </text>
			</g>
			<g clip-path="url(#SVGID_24_)">
				<text transform="matrix(1 0 0 1 168.0625 352.0443)" font-family="'Helvetica'" font-size="9">Admissions</text>
			</g>
			<g clip-path="url(#SVGID_24_)">
				<text transform="matrix(1 0 0 1 168.0625 385.0443)" font-family="'Helvetica'" font-size="9">Requirements</text>
			</g>
			<g clip-path="url(#SVGID_24_)">
				<text transform="matrix(1 0 0 1 168.0625 420.0443)" font-family="'Helvetica'" font-size="9">Evening/</text>
			</g>
			<g clip-path="url(#SVGID_24_)">
				<text transform="matrix(1 0 0 1 168.0625 431.0443)"><tspan x="0" y="0" font-family="'Helvetica'" font-size="9">W</tspan><tspan x="8.3" y="0" font-family="'Helvetica'" font-size="9">eekend Degree </tspan></text>
			</g>
			<g clip-path="url(#SVGID_24_)">
				<text transform="matrix(1 0 0 1 168.0625 442.0443)" font-family="'Helvetica'" font-size="9">Programs</text>
			</g>
			<g clip-path="url(#SVGID_24_)">
				<text transform="matrix(1 0 0 1 168.0625 477.0443)" font-family="'Helvetica'" font-size="9">Middle School </text>
			</g>
			<g clip-path="url(#SVGID_24_)">
				<text transform="matrix(1 0 0 1 168.0625 488.0443)" font-family="'Helvetica'" font-size="9">and High School </text>
			</g>
			<g clip-path="url(#SVGID_24_)">
				<text transform="matrix(1 0 0 1 168.0625 499.0443)" font-family="'Helvetica'" font-size="9">Classes</text>
			</g>
			<g clip-path="url(#SVGID_24_)">
				<text transform="matrix(1 0 0 1 168.0625 534.0443)"><tspan x="0" y="0" font-family="'Helvetica'" font-size="9">T</tspan><tspan x="5.2" y="0" font-family="'Helvetica'" font-size="9">uition Costs</tspan></text>
			</g>
			<g clip-path="url(#SVGID_24_)">
				<text transform="matrix(1 0 0 1 168.0625 569.0443)"><tspan x="0" y="0" font-family="'Helvetica'" font-size="9">Financial</tspan><tspan x="36" y="0" font-family="'Helvetica'" font-size="9"> </tspan><tspan x="38" y="0" font-family="'Helvetica'" font-size="9">Aid </tspan></text>
			</g>
			<g clip-path="url(#SVGID_24_)">
				<text transform="matrix(1 0 0 1 168.0625 580.0443)" font-family="'Helvetica'" font-size="9">Services</text>
			</g>
			<g clip-path="url(#SVGID_24_)">
				<text transform="matrix(1 0 0 1 168.0625 615.0443)"><tspan x="0" y="0" font-family="'Helvetica'" font-size="9">Bursa</tspan><tspan x="23.5" y="0" font-family="'Helvetica'" font-size="9">r</tspan><tspan x="26.8" y="0" font-family="'Helvetica'" font-size="9">’</tspan><tspan x="28.7" y="0" font-family="'Helvetica'" font-size="9">s Ofﬁce</tspan></text>
			</g>
			<g clip-path="url(#SVGID_24_)">
				<text transform="matrix(1 0 0 1 168.0625 650.0443)" font-family="'Helvetica'" font-size="9">Educational </text>
			</g>
			<g clip-path="url(#SVGID_24_)">
				<text transform="matrix(1 0 0 1 168.0625 661.0443)" font-family="'Helvetica'" font-size="9">Opportunity </text>
			</g>
			<g clip-path="url(#SVGID_24_)">
				<text transform="matrix(1 0 0 1 168.0625 672.0443)" font-family="'Helvetica'" font-size="9">Programs (EOP)</text>
			</g>
			<g clip-path="url(#SVGID_24_)">
				<text transform="matrix(1 0 0 1 168.0625 707.0443)" font-family="'Helvetica'" font-size="9">Presidential </text>
			</g>
			<g clip-path="url(#SVGID_24_)">
				<text transform="matrix(1 0 0 1 168.0625 718.0443)" font-family="'Helvetica'" font-size="9">Scholars (Honors </text>
			</g>
			<g clip-path="url(#SVGID_24_)">
				<text transform="matrix(1 0 0 1 168.0625 729.0443)" font-family="'Helvetica'" font-size="9">Program)</text>
			</g>
			<g clip-path="url(#SVGID_24_)">
				<text transform="matrix(1 0 0 1 168.0625 764.0443)"><tspan x="0" y="0" font-family="'Helvetica'" font-size="9">V</tspan><tspan x="5.5" y="0" font-family="'Helvetica'" font-size="9">eterans Services</tspan></text>
			</g>
			<g clip-path="url(#SVGID_24_)">
				<text transform="matrix(1 0 0 1 168.0625 799.0443)" font-family="'Helvetica'" font-size="9">Online Learning</text>
			</g>
			<g clip-path="url(#SVGID_24_)">
				<text transform="matrix(1 0 0 1 168.0625 810.0443)"><tspan x="0" y="0" font-family="'Helvetica'" font-size="9">V</tspan><tspan x="5.9" y="0" font-family="'Helvetica'" font-size="9">irtual</tspan><tspan x="25.4" y="0" font-family="'Helvetica'" font-size="9"> </tspan><tspan x="27.7" y="0" font-family="'Helvetica'" font-size="9">T</tspan><tspan x="32.2" y="0" font-family="'Helvetica'" font-size="9">our</tspan></text>
			</g>
		</g>
		<g>
			<defs>
				<rect id="SVGID_25_" x="245" y="225.1" width="80.7" height="986.5"/>
			</defs>
			<clipPath id="SVGID_26_">
				<use xlink:href="#SVGID_25_"  overflow="visible"/>
			</clipPath>
			<g clip-path="url(#SVGID_26_)">
				<text transform="matrix(1 0 0 1 249.0312 238.0443)" font-family="'Helvetica'" font-size="9">Student Life at </text>
			</g>
			<g clip-path="url(#SVGID_26_)">
				<text transform="matrix(1 0 0 1 249.0312 249.0443)" font-family="'Helvetica'" font-size="9">FIT</text>
			</g>
			<g clip-path="url(#SVGID_26_)">
				<text transform="matrix(1 0 0 1 249.0312 284.0443)" font-family="'Helvetica'" font-size="9">Residential Life</text>
			</g>
			<g clip-path="url(#SVGID_26_)">
				<text transform="matrix(1 0 0 1 249.0312 319.0443)" font-family="'Helvetica'" font-size="9">Safety &amp; Security</text>
			</g>
			<g clip-path="url(#SVGID_26_)">
				<text transform="matrix(1 0 0 1 249.0312 354.0443)" font-family="'Helvetica'" font-size="9">Health Services</text>
			</g>
			<g clip-path="url(#SVGID_26_)">
				<text transform="matrix(1 0 0 1 249.0312 389.0443)" font-family="'Helvetica'" font-size="9">Counseling </text>
			</g>
			<g clip-path="url(#SVGID_26_)">
				<text transform="matrix(1 0 0 1 249.0312 400.0443)" font-family="'Helvetica'" font-size="9">Services</text>
			</g>
			<g clip-path="url(#SVGID_26_)">
				<text transform="matrix(1 0 0 1 249.0312 435.0443)" font-family="'Helvetica'" font-size="9">Disability Support </text>
			</g>
			<g clip-path="url(#SVGID_26_)">
				<text transform="matrix(1 0 0 1 249.0312 446.0443)"><tspan x="0" y="0" font-family="'Helvetica'" font-size="9">Services (FI</tspan><tspan x="48" y="0" font-family="'Helvetica'" font-size="9">T</tspan><tspan x="53" y="0" font-family="'Helvetica'" font-size="9">-</tspan></text>
			</g>
			<g clip-path="url(#SVGID_26_)">
				<text transform="matrix(1 0 0 1 249.0312 457.0443)" font-family="'Helvetica'" font-size="9">able)</text>
			</g>
			<g clip-path="url(#SVGID_26_)">
				<text transform="matrix(1 0 0 1 249.0312 492.0443)" font-family="'Helvetica'" font-size="9">International </text>
			</g>
			<g clip-path="url(#SVGID_26_)">
				<text transform="matrix(1 0 0 1 249.0312 503.0443)" font-family="'Helvetica'" font-size="9">Student Services</text>
			</g>
			<g clip-path="url(#SVGID_26_)">
				<text transform="matrix(1 0 0 1 249.0312 538.0443)"><tspan x="0" y="0" font-family="'Helvetica'" font-size="9">V</tspan><tspan x="5.5" y="0" font-family="'Helvetica'" font-size="9">eteran Services</tspan></text>
			</g>
			<g clip-path="url(#SVGID_26_)">
				<text transform="matrix(1 0 0 1 249.0312 573.0443)" font-family="'Helvetica'" font-size="9">Student Clubs </text>
			</g>
			<g clip-path="url(#SVGID_26_)">
				<text transform="matrix(1 0 0 1 249.0312 584.0443)"><tspan x="0" y="0" font-family="'Helvetica'" font-size="9">and</tspan><tspan x="15" y="0" font-family="'Helvetica'" font-size="9"> </tspan><tspan x="17" y="0" font-family="'Helvetica'" font-size="9">Activities</tspan></text>
			</g>
			<g clip-path="url(#SVGID_26_)">
				<text transform="matrix(1 0 0 1 249.0312 619.0443)" font-family="'Helvetica'" font-size="9">Athletics and </text>
			</g>
			<g clip-path="url(#SVGID_26_)">
				<text transform="matrix(1 0 0 1 249.0312 630.0443)" font-family="'Helvetica'" font-size="9">Recreation</text>
			</g>
			<g clip-path="url(#SVGID_26_)">
				<text transform="matrix(1 0 0 1 249.0312 665.0443)" font-family="'Helvetica'" font-size="9">Dining Services</text>
			</g>
			<g clip-path="url(#SVGID_26_)">
				<text transform="matrix(1 0 0 1 249.0312 700.0443)" font-family="'Helvetica'" font-size="9">Barnes &amp; Nobles </text>
			</g>
			<g clip-path="url(#SVGID_26_)">
				<text transform="matrix(1 0 0 1 249.0312 711.0443)" font-family="'Helvetica'" font-size="9">at FIT</text>
			</g>
		</g>
		<g>
			<defs>
				<rect id="SVGID_27_" x="568.9" y="225.1" width="80.7" height="986.5"/>
			</defs>
			<clipPath id="SVGID_28_">
				<use xlink:href="#SVGID_27_"  overflow="visible"/>
			</clipPath>
			<g clip-path="url(#SVGID_28_)">
				<text transform="matrix(1 0 0 1 572.9062 238.0443)" font-family="'Helvetica'" font-size="9">Current Students</text>
			</g>
			<g clip-path="url(#SVGID_28_)">
				<text transform="matrix(1 0 0 1 572.9062 273.0443)"><tspan x="0" y="0" font-family="'Helvetica'" font-size="9">Faculty &amp; Sta</tspan><tspan x="53.5" y="0" font-family="'Helvetica'" font-size="9">f</tspan><tspan x="55.9" y="0" font-family="'Helvetica'" font-size="9">f</tspan></text>
			</g>
			<g clip-path="url(#SVGID_28_)">
				<text transform="matrix(1 0 0 1 572.9062 308.0443)" font-family="'Helvetica'" font-size="9">Alumni</text>
			</g>
			<g clip-path="url(#SVGID_28_)">
				<text transform="matrix(1 0 0 1 572.9062 343.0443)" font-family="'Helvetica'" font-size="9">Recently </text>
			</g>
			<g clip-path="url(#SVGID_28_)">
				<text transform="matrix(1 0 0 1 572.9062 354.0443)" font-family="'Helvetica'" font-size="9">Accepted </text>
			</g>
			<g clip-path="url(#SVGID_28_)">
				<text transform="matrix(1 0 0 1 572.9062 365.0443)" font-family="'Helvetica'" font-size="9">Students</text>
			</g>
			<g clip-path="url(#SVGID_28_)">
				<text transform="matrix(1 0 0 1 572.9062 400.0443)" font-family="'Helvetica'" font-size="9">Parents</text>
			</g>
			<g clip-path="url(#SVGID_28_)">
				<text transform="matrix(1 0 0 1 572.9062 435.0443)" font-family="'Helvetica'" font-size="9">Employers &amp; </text>
			</g>
			<g clip-path="url(#SVGID_28_)">
				<text transform="matrix(1 0 0 1 572.9062 446.0443)" font-family="'Helvetica'" font-size="9">Industry</text>
			</g>
			<g clip-path="url(#SVGID_28_)">
				<text transform="matrix(1 0 0 1 572.9062 481.0443)" font-family="'Helvetica'" font-size="9">Adult Learners &amp; </text>
			</g>
			<g clip-path="url(#SVGID_28_)">
				<text transform="matrix(1 0 0 1 572.9062 492.0443)" font-family="'Helvetica'" font-size="9">Career </text>
			</g>
			<g clip-path="url(#SVGID_28_)">
				<text transform="matrix(1 0 0 1 572.9062 525.0443)" font-family="'Helvetica'" font-size="9">Professionals</text>
			</g>
		</g>
		<g>
			<defs>
				<rect id="SVGID_29_" y="131.9" width="651" height="1082"/>
			</defs>
			<clipPath id="SVGID_30_">
				<use xlink:href="#SVGID_29_"  overflow="visible"/>
			</clipPath>
			<line clip-path="url(#SVGID_30_)" fill="none" stroke="#BFBFBF" stroke-width="0.25" x1="83" y1="177.1" x2="83" y2="1212.3"/>
			
				<line clip-path="url(#SVGID_30_)" fill="none" stroke="#BFBFBF" stroke-width="0.25" x1="163.9" y1="177.1" x2="163.9" y2="1212.3"/>
			
				<line clip-path="url(#SVGID_30_)" fill="none" stroke="#BFBFBF" stroke-width="0.25" x1="244.9" y1="177.1" x2="244.9" y2="1212.3"/>
			
				<line clip-path="url(#SVGID_30_)" fill="none" stroke="#BFBFBF" stroke-width="0.25" x1="325.9" y1="177.1" x2="325.9" y2="1212.3"/>
			
				<line clip-path="url(#SVGID_30_)" fill="none" stroke="#BFBFBF" stroke-width="0.25" x1="406.8" y1="177.1" x2="406.8" y2="1212.3"/>
			
				<line clip-path="url(#SVGID_30_)" fill="none" stroke="#BFBFBF" stroke-width="0.25" x1="487.8" y1="177.1" x2="487.8" y2="1212.3"/>
			
				<line clip-path="url(#SVGID_30_)" fill="none" stroke="#BFBFBF" stroke-width="0.25" x1="568.8" y1="177.1" x2="568.8" y2="1212.3"/>
			
				<line clip-path="url(#SVGID_30_)" fill="none" stroke="#BFBFBF" stroke-width="0.25" x1="1.5" y1="177.6" x2="650.2" y2="177.6"/>
			<line clip-path="url(#SVGID_30_)" fill="none" stroke="#BFBFBF" stroke-width="0.25" x1="1.5" y1="225" x2="650.2" y2="225"/>
			<line clip-path="url(#SVGID_30_)" fill="none" stroke="#BFBFBF" stroke-width="0.25" x1="2" y1="133.4" x2="2" y2="1212.3"/>
			
				<line clip-path="url(#SVGID_30_)" fill="none" stroke="#BFBFBF" stroke-width="0.25" x1="649.8" y1="133.4" x2="649.8" y2="1212.3"/>
			
				<line clip-path="url(#SVGID_30_)" fill="none" stroke="#BFBFBF" stroke-width="0.25" x1="1.5" y1="133.9" x2="650.2" y2="133.9"/>
			
				<line clip-path="url(#SVGID_30_)" fill="none" stroke="#BFBFBF" stroke-width="0.25" x1="1.5" y1="1211.8" x2="650.2" y2="1211.8"/>
		</g>
	</g>
	<text transform="matrix(1 0 0 1 2.1249 10.0441)"><tspan x="0" y="0" font-family="'MyriadPro-Regular'" font-size="12">FIT website</tspan><tspan x="0" y="28.8" font-family="'MyriadPro-Regular'" font-size="12">The main body of audience of this website are probably prospective</tspan><tspan x="0" y="43.2" font-family="'MyriadPro-Regular'" font-size="12"> students and current students, the former being more frequent. Thus </tspan><tspan x="0" y="57.6" font-family="'MyriadPro-Regular'" font-size="12">the website’s main goal would likely be to provide information pertaining</tspan><tspan x="0" y="72" font-family="'MyriadPro-Regular'" font-size="12">to the various types of questions the audience have. The object is to address </tspan><tspan x="0" y="86.4" font-family="'MyriadPro-Regular'" font-size="12">a wide enough range of information without creating unneccessary categories. </tspan></text>
</g>
</svg>
