<?xml version="1.0" encoding="utf-8"?>
<!-- Generator: Adobe Illustrator 18.1.1, SVG Export Plug-In . SVG Version: 6.00 Build 0)  -->
<svg version="1.1" id="Layer_1" xmlns="http://www.w3.org/2000/svg" xmlns:xlink="http://www.w3.org/1999/xlink" x="0px" y="0px"
	 viewBox="0 0 560.3 1130.1" enable-background="new 0 0 560.3 1130.1" xml:space="preserve">
<g>
	<g>
		<rect x="74.1" y="119.8" fill="none" stroke="#000000" width="38.3" height="20.9"/>
		<text transform="matrix(1 0 0 1 80.5293 131.5784)" font-family="'MyriadPro-Regular'" font-size="5.9269">main page</text>
		<rect x="0.5" y="158.6" fill="none" stroke="#000000" width="38.3" height="20.9"/>
		<text transform="matrix(1 0 0 1 13.3891 170.3509)" font-family="'MyriadPro-Regular'" font-size="5.9269">red 1</text>
		<rect x="0.5" y="187.6" fill="none" stroke="#000000" width="38.3" height="20.9"/>
		<text transform="matrix(1 0 0 1 13.3891 199.4173)" font-family="'MyriadPro-Regular'" font-size="5.9269">red 2</text>
		<rect x="48.4" y="158.6" fill="none" stroke="#000000" width="38.3" height="20.9"/>
		<text transform="matrix(1 0 0 1 58.1839 170.3509)" font-family="'MyriadPro-Regular'" font-size="5.9269">green 1</text>
		<rect x="48.4" y="187.6" fill="none" stroke="#000000" width="38.3" height="20.9"/>
		<text transform="matrix(1 0 0 1 58.1839 199.4173)" font-family="'MyriadPro-Regular'" font-size="5.9269">green 2</text>
		<rect x="97.8" y="158.6" fill="none" stroke="#000000" width="38.3" height="20.9"/>
		<text transform="matrix(1 0 0 1 106.0041 170.3509)" font-family="'MyriadPro-Regular'" font-size="5.9269">orange 1</text>
		<rect x="97.8" y="187.6" fill="none" stroke="#000000" width="38.3" height="20.9"/>
		<text transform="matrix(1 0 0 1 106.0041 199.4173)" font-family="'MyriadPro-Regular'" font-size="5.9269">orange 2</text>
		<rect x="97.8" y="216.9" fill="none" stroke="#000000" width="38.3" height="20.9"/>
		<text transform="matrix(1 0 0 1 106.0041 228.632)" font-family="'MyriadPro-Regular'" font-size="5.9269">orange 3</text>
		<rect x="144.3" y="158.6" fill="none" stroke="#000000" width="38.3" height="20.9"/>
		<text transform="matrix(1 0 0 1 155.8388 170.3509)" font-family="'MyriadPro-Regular'" font-size="5.9269">blue 1</text>
		<polyline fill="none" stroke="#000000" stroke-miterlimit="10" points="19.8,158.1 19.8,149.6 162.8,149.6 162.8,158.1 		"/>
		<line fill="none" stroke="#000000" stroke-miterlimit="10" x1="116.8" y1="149.1" x2="116.8" y2="158.1"/>
		<line fill="none" stroke="#000000" x1="67.8" y1="149.1" x2="67.8" y2="159.1"/>
		<line fill="none" stroke="#000000" x1="90.8" y1="141.1" x2="90.8" y2="149.1"/>
	</g>
	<rect x="291.2" y="326.2" fill="none" stroke="#000000" width="38.3" height="20.9"/>
	<text transform="matrix(1 0 0 1 297.6034 337.972)" font-family="'MyriadPro-Regular'" font-size="5.9269">main page</text>
	<g>
		<rect x="347.5" y="297.1" fill="none" stroke="#000000" width="38.3" height="20.9"/>
		<text transform="matrix(1 0 0 1 360.3623 308.9056)" font-family="'MyriadPro-Regular'" font-size="5.9269">red 1</text>
	</g>
	<g>
		<rect x="347.5" y="326.2" fill="none" stroke="#000000" width="38.3" height="20.9"/>
		<text transform="matrix(1 0 0 1 355.6772 337.972)" font-family="'MyriadPro-Regular'" font-size="5.9269">orange 1</text>
	</g>
	<g>
		<rect x="347.5" y="355.4" fill="none" stroke="#000000" width="38.3" height="20.9"/>
		<text transform="matrix(1 0 0 1 358.9843 367.1867)" font-family="'MyriadPro-Regular'" font-size="5.9269">blue 1</text>
	</g>
	<g>
		<rect x="347.5" y="384.1" fill="none" stroke="#000000" width="38.3" height="20.9"/>
		<text transform="matrix(1 0 0 1 357.2475 395.8329)" font-family="'MyriadPro-Regular'" font-size="5.9269">green 1</text>
	</g>
	<g>
		<rect x="417.6" y="207.7" fill="none" stroke="#000000" width="38.3" height="20.9"/>
		<text transform="matrix(1 0 0 1 427.382 219.4338)" font-family="'MyriadPro-Regular'" font-size="5.9269">green 2</text>
	</g>
	
		<rect x="417.6" y="236.7" fill="none" stroke="#000000" stroke-width="0.5" stroke-linecap="round" stroke-dasharray="12" width="38.3" height="20.9"/>
	<text transform="matrix(1 0 0 1 425.8117 248.5012)" font-family="'MyriadPro-Regular'" font-size="5.9269">orange 1</text>
	
		<rect x="417.6" y="178.6" fill="none" stroke="#000000" stroke-width="0.5" stroke-linecap="round" stroke-dasharray="12" width="38.3" height="20.9"/>
	<text transform="matrix(1 0 0 1 427.382 190.3664)" font-family="'MyriadPro-Regular'" font-size="5.9269">green 1</text>
	<g>
		<rect x="417.6" y="265.9" fill="none" stroke="#000000" width="38.3" height="20.9"/>
		<text transform="matrix(1 0 0 1 425.8117 277.7149)" font-family="'MyriadPro-Regular'" font-size="5.9269">orange 2</text>
	</g>
	
		<rect x="414.6" y="435.6" fill="none" stroke="#000000" stroke-width="0.5" stroke-linecap="round" stroke-dasharray="12" width="38.3" height="20.9"/>
	<text transform="matrix(1 0 0 1 427.5335 447.4192)" font-family="'MyriadPro-Regular'" font-size="5.9269">red 1</text>
	<rect x="414.6" y="459.8" fill="none" stroke="#000000" width="38.3" height="20.9"/>
	<text transform="matrix(1 0 0 1 427.5335 471.5463)" font-family="'MyriadPro-Regular'" font-size="5.9269">red 2</text>
	
		<rect x="414.6" y="484" fill="none" stroke="#000000" stroke-width="0.5" stroke-linecap="round" stroke-dasharray="12" width="38.3" height="20.9"/>
	<text transform="matrix(1 0 0 1 422.8485 495.8217)" font-family="'MyriadPro-Regular'" font-size="5.9269">orange 1</text>
	
		<rect x="417.6" y="296.5" fill="none" stroke="#000000" stroke-width="0.5" stroke-linecap="round" stroke-dasharray="12" width="38.3" height="20.9"/>
	<text transform="matrix(1 0 0 1 430.5047 308.2822)" font-family="'MyriadPro-Regular'" font-size="5.9269">red 1</text>
	<rect x="417.6" y="320.6" fill="none" stroke="#000000" width="38.3" height="20.9"/>
	<text transform="matrix(1 0 0 1 430.5047 332.4113)" font-family="'MyriadPro-Regular'" font-size="5.9269">red 2</text>
	<rect x="417.6" y="376.9" fill="none" stroke="#000000" width="38.3" height="20.9"/>
	<text transform="matrix(1 0 0 1 425.8197 388.7079)" font-family="'MyriadPro-Regular'" font-size="5.9269">orange 2</text>
	<rect x="417.6" y="401.1" fill="none" stroke="#000000" width="38.3" height="20.9"/>
	<text transform="matrix(1 0 0 1 427.39 412.836)" font-family="'MyriadPro-Regular'" font-size="5.9269">green 2</text>
	<rect x="417.6" y="344.9" fill="none" stroke="#000000" width="38.3" height="20.9"/>
	<text transform="matrix(1 0 0 1 425.8197 356.6857)" font-family="'MyriadPro-Regular'" font-size="5.9269">orange 3</text>
	
		<rect x="521.1" y="24.4" fill="none" stroke="#000000" stroke-width="0.5" stroke-linecap="round" stroke-dasharray="12" width="38.3" height="20.9"/>
	<text transform="matrix(1 0 0 1 534.0184 36.1575)" font-family="'MyriadPro-Regular'" font-size="5.9269">red 2</text>
	
		<rect x="521.1" y="48.5" fill="none" stroke="#000000" stroke-width="0.5" stroke-linecap="round" stroke-dasharray="12" width="38.3" height="20.9"/>
	<text transform="matrix(1 0 0 1 529.3333 60.2865)" font-family="'MyriadPro-Regular'" font-size="5.9269">orange 1</text>
	
		<rect x="521.1" y="0.3" fill="none" stroke="#000000" stroke-width="0.5" stroke-linecap="round" stroke-dasharray="12" width="38.3" height="20.9"/>
	<text transform="matrix(1 0 0 1 534.0184 12.0294)" font-family="'MyriadPro-Regular'" font-size="5.9269">red 1</text>
	
		<rect x="521.1" y="72.8" fill="none" stroke="#000000" stroke-width="0.5" stroke-linecap="round" stroke-dasharray="12" width="38.3" height="20.9"/>
	<text transform="matrix(1 0 0 1 529.3333 84.5619)" font-family="'MyriadPro-Regular'" font-size="5.9269">orange 2</text>
	
		<rect x="521.1" y="98.4" fill="none" stroke="#000000" stroke-width="0.5" stroke-linecap="round" stroke-dasharray="12" width="38.3" height="20.9"/>
	<text transform="matrix(1 0 0 1 529.3411 110.1894)" font-family="'MyriadPro-Regular'" font-size="5.9269">orange 3</text>
	
		<rect x="521.1" y="122.5" fill="none" stroke="#000000" stroke-width="0.5" stroke-linecap="round" stroke-dasharray="12" width="38.3" height="20.9"/>
	<text transform="matrix(1 0 0 1 530.9114 134.3175)" font-family="'MyriadPro-Regular'" font-size="5.9269">green 1</text>
	
		<rect x="521.1" y="146.8" fill="none" stroke="#000000" stroke-width="0.5" stroke-linecap="round" stroke-dasharray="12" width="38.3" height="20.9"/>
	<text transform="matrix(1 0 0 1 532.6483 158.5929)" font-family="'MyriadPro-Regular'" font-size="5.9269">blue 1</text>
	
		<rect x="521.7" y="312.8" fill="none" stroke="#000000" stroke-width="0.5" stroke-linecap="round" stroke-dasharray="12" width="38.3" height="20.9"/>
	<text transform="matrix(1 0 0 1 529.8813 324.5531)" font-family="'MyriadPro-Regular'" font-size="5.9269">orange 3</text>
	
		<rect x="521.7" y="336.9" fill="none" stroke="#000000" stroke-width="0.5" stroke-linecap="round" stroke-dasharray="12" width="38.3" height="20.9"/>
	<text transform="matrix(1 0 0 1 531.4516 348.6807)" font-family="'MyriadPro-Regular'" font-size="5.9269">green 1</text>
	
		<rect x="521.7" y="361.2" fill="none" stroke="#000000" stroke-width="0.5" stroke-linecap="round" stroke-dasharray="12" width="38.3" height="20.9"/>
	<text transform="matrix(1 0 0 1 533.1884 372.9561)" font-family="'MyriadPro-Regular'" font-size="5.9269">blue 1</text>
	<rect x="414.6" y="508.3" fill="none" stroke="#000000" width="38.3" height="20.9"/>
	<text transform="matrix(1 0 0 1 422.8485 520.097)" font-family="'MyriadPro-Regular'" font-size="5.9269">orange 2</text>
	<rect x="414.6" y="532.5" fill="none" stroke="#000000" width="38.3" height="20.9"/>
	<text transform="matrix(1 0 0 1 422.8485 544.2978)" font-family="'MyriadPro-Regular'" font-size="5.9269">orange 3</text>
	<line fill="none" stroke="#000000" stroke-miterlimit="10" x1="329.3" y1="336.6" x2="347.3" y2="336.6"/>
	<polyline fill="none" stroke="#000000" stroke-miterlimit="10" points="347.3,307.6 335.8,307.6 335.8,392.6 347.3,392.6 	"/>
	<line fill="none" stroke="#000000" stroke-miterlimit="10" x1="347.3" y1="365.6" x2="335.3" y2="365.6"/>
	<polyline fill="none" stroke="#000000" stroke-miterlimit="10" points="417.3,189.6 407.8,189.6 407.8,276.6 417.3,276.6 	"/>
	<polyline fill="none" stroke="#000000" stroke-miterlimit="10" points="521.3,11.6 510.8,11.6 510.8,156.6 521.3,156.6 	"/>
	<polyline fill="none" stroke="#000000" stroke-miterlimit="10" points="521.3,321.6 511.8,321.6 511.8,370.6 521.3,370.6 	"/>
	<polyline fill="none" stroke="#000000" stroke-miterlimit="10" points="417.3,246.6 407.1,246.6 385.7,308.5 	"/>
	<polyline fill="none" stroke="#000000" stroke-miterlimit="10" points="414.3,446.6 403.8,446.6 403.8,542.6 414.3,542.6 	"/>
	<line fill="none" stroke="#000000" stroke-miterlimit="10" x1="414.3" y1="470.6" x2="403.3" y2="470.6"/>
	<line fill="none" stroke="#000000" stroke-miterlimit="10" x1="414.3" y1="518.6" x2="403.3" y2="518.6"/>
	<polyline fill="none" stroke="#000000" stroke-miterlimit="10" points="385.7,392.4 405,494.6 414.3,494.6 	"/>
	<polyline fill="none" stroke="#000000" stroke-miterlimit="10" points="417.3,307.6 406.8,307.6 406.8,352.6 417.3,352.6 	"/>
	<polyline fill="none" stroke="#000000" stroke-miterlimit="10" points="417.3,387.6 406.8,387.6 406.8,409.6 417.3,409.6 	"/>
	<polyline fill="none" stroke="#000000" stroke-miterlimit="10" points="385.7,336.8 406.6,332.6 417.3,332.6 	"/>
	<line fill="none" stroke="#000000" stroke-miterlimit="10" x1="385.8" y1="365.8" x2="406.9" y2="397.1"/>
	<line fill="none" stroke="#000000" stroke-miterlimit="10" x1="407.3" y1="218.6" x2="417.3" y2="218.6"/>
	<line fill="none" stroke="#000000" stroke-miterlimit="10" x1="521.3" y1="35.6" x2="511.3" y2="35.6"/>
	<line fill="none" stroke="#000000" stroke-miterlimit="10" x1="521.3" y1="58.6" x2="511.3" y2="58.6"/>
	<line fill="none" stroke="#000000" stroke-miterlimit="10" x1="521.3" y1="108.6" x2="511.3" y2="108.6"/>
	<line fill="none" stroke="#000000" stroke-miterlimit="10" x1="521.3" y1="132.6" x2="511.3" y2="132.6"/>
	<polyline fill="none" stroke="#000000" stroke-miterlimit="10" points="457.3,218.1 516.1,83.6 521.3,83.6 	"/>
	
		<rect x="521.1" y="659.4" fill="none" stroke="#000000" stroke-width="0.5" stroke-linecap="round" stroke-dasharray="12" width="38.3" height="20.9"/>
	<text transform="matrix(1 0 0 1 534.0184 671.1575)" font-family="'MyriadPro-Regular'" font-size="5.9269">red 2</text>
	
		<rect x="521.1" y="683.5" fill="none" stroke="#000000" stroke-width="0.5" stroke-linecap="round" stroke-dasharray="12" width="38.3" height="20.9"/>
	<text transform="matrix(1 0 0 1 529.3333 695.2865)" font-family="'MyriadPro-Regular'" font-size="5.9269">orange 1</text>
	
		<rect x="521.1" y="635.2" fill="none" stroke="#000000" stroke-width="0.5" stroke-linecap="round" stroke-dasharray="12" width="38.3" height="20.9"/>
	<text transform="matrix(1 0 0 1 534.0184 647.0294)" font-family="'MyriadPro-Regular'" font-size="5.9269">red 1</text>
	
		<rect x="521.1" y="707.8" fill="none" stroke="#000000" stroke-width="0.5" stroke-linecap="round" stroke-dasharray="12" width="38.3" height="20.9"/>
	<text transform="matrix(1 0 0 1 529.3333 719.5619)" font-family="'MyriadPro-Regular'" font-size="5.9269">orange 2</text>
	
		<rect x="521.1" y="733.4" fill="none" stroke="#000000" stroke-width="0.5" stroke-linecap="round" stroke-dasharray="12" width="38.3" height="20.9"/>
	<text transform="matrix(1 0 0 1 529.3411 745.1894)" font-family="'MyriadPro-Regular'" font-size="5.9269">orange 3</text>
	
		<rect x="521.1" y="757.5" fill="none" stroke="#000000" stroke-width="0.5" stroke-linecap="round" stroke-dasharray="12" width="38.3" height="20.9"/>
	<text transform="matrix(1 0 0 1 530.9114 769.3174)" font-family="'MyriadPro-Regular'" font-size="5.9269">green 1</text>
	
		<rect x="521.1" y="781.8" fill="none" stroke="#000000" stroke-width="0.5" stroke-linecap="round" stroke-dasharray="12" width="38.3" height="20.9"/>
	<text transform="matrix(1 0 0 1 532.6483 793.5928)" font-family="'MyriadPro-Regular'" font-size="5.9269">blue 1</text>
	<polyline fill="none" stroke="#000000" stroke-miterlimit="10" points="521.3,646.6 510.8,646.6 510.8,791.6 521.3,791.6 	"/>
	<line fill="none" stroke="#000000" stroke-miterlimit="10" x1="521.3" y1="670.6" x2="511.3" y2="670.6"/>
	<line fill="none" stroke="#000000" stroke-miterlimit="10" x1="521.3" y1="693.6" x2="511.3" y2="693.6"/>
	<line fill="none" stroke="#000000" stroke-miterlimit="10" x1="521.3" y1="743.6" x2="511.3" y2="743.6"/>
	<line fill="none" stroke="#000000" stroke-miterlimit="10" x1="521.3" y1="767.6" x2="511.3" y2="767.6"/>
	<polyline fill="none" stroke="#000000" stroke-miterlimit="10" points="455.9,421.9 516,718.6 521.3,718.6 	"/>
	<polyline fill="none" stroke="#000000" stroke-miterlimit="10" points="521.3,347.6 510.9,347.6 453,331.1 	"/>
	
		<rect x="521.7" y="823.8" fill="none" stroke="#000000" stroke-width="0.5" stroke-linecap="round" stroke-dasharray="12" width="38.3" height="20.9"/>
	<text transform="matrix(1 0 0 1 529.8813 835.5531)" font-family="'MyriadPro-Regular'" font-size="5.9269">orange 3</text>
	
		<rect x="521.7" y="847.9" fill="none" stroke="#000000" stroke-width="0.5" stroke-linecap="round" stroke-dasharray="12" width="38.3" height="20.9"/>
	<text transform="matrix(1 0 0 1 531.4516 859.6807)" font-family="'MyriadPro-Regular'" font-size="5.9269">green 1</text>
	
		<rect x="521.7" y="872.2" fill="none" stroke="#000000" stroke-width="0.5" stroke-linecap="round" stroke-dasharray="12" width="38.3" height="20.9"/>
	<text transform="matrix(1 0 0 1 533.1884 883.9561)" font-family="'MyriadPro-Regular'" font-size="5.9269">blue 1</text>
	<polyline fill="none" stroke="#000000" stroke-miterlimit="10" points="521.3,832.6 511.8,832.6 511.8,881.6 521.3,881.6 	"/>
	
		<rect x="521.1" y="177.1" fill="none" stroke="#000000" stroke-width="0.5" stroke-linecap="round" stroke-dasharray="12" width="38.3" height="20.9"/>
	<text transform="matrix(1 0 0 1 534.0184 188.8314)" font-family="'MyriadPro-Regular'" font-size="5.9269">red 1</text>
	
		<rect x="521.1" y="201.3" fill="none" stroke="#000000" stroke-width="0.5" stroke-linecap="round" stroke-dasharray="12" width="38.3" height="20.9"/>
	<text transform="matrix(1 0 0 1 534.0184 213.1068)" font-family="'MyriadPro-Regular'" font-size="5.9269">red 2</text>
	
		<rect x="521.1" y="227" fill="none" stroke="#000000" stroke-width="0.5" stroke-linecap="round" stroke-dasharray="12" width="38.3" height="20.9"/>
	<text transform="matrix(1 0 0 1 529.3411 238.7354)" font-family="'MyriadPro-Regular'" font-size="5.9269">orange 1</text>
	
		<rect x="521.1" y="251.1" fill="none" stroke="#000000" stroke-width="0.5" stroke-linecap="round" stroke-dasharray="12" width="38.3" height="20.9"/>
	<text transform="matrix(1 0 0 1 529.3411 262.8624)" font-family="'MyriadPro-Regular'" font-size="5.9269">orange 2</text>
	
		<rect x="521.1" y="275.4" fill="none" stroke="#000000" stroke-width="0.5" stroke-linecap="round" stroke-dasharray="12" width="38.3" height="20.9"/>
	<text transform="matrix(1 0 0 1 530.9114 287.1378)" font-family="'MyriadPro-Regular'" font-size="5.9269">green 2</text>
	<polyline fill="none" stroke="#000000" stroke-miterlimit="10" points="520.3,188.6 510.8,188.6 510.8,285.6 520.3,285.6 	"/>
	<line fill="none" stroke="#000000" stroke-miterlimit="10" x1="521.3" y1="211.6" x2="511.3" y2="211.6"/>
	<line fill="none" stroke="#000000" stroke-miterlimit="10" x1="521.3" y1="263.6" x2="511.3" y2="263.6"/>
	<polyline fill="none" stroke="#000000" stroke-miterlimit="10" points="455.7,277.7 511.3,237.6 521.3,237.6 	"/>
	
		<rect x="521.1" y="504.1" fill="none" stroke="#000000" stroke-width="0.5" stroke-linecap="round" stroke-dasharray="12" width="38.3" height="20.9"/>
	<text transform="matrix(1 0 0 1 534.0184 515.8314)" font-family="'MyriadPro-Regular'" font-size="5.9269">red 1</text>
	
		<rect x="521.1" y="528.3" fill="none" stroke="#000000" stroke-width="0.5" stroke-linecap="round" stroke-dasharray="12" width="38.3" height="20.9"/>
	<text transform="matrix(1 0 0 1 534.0184 540.1068)" font-family="'MyriadPro-Regular'" font-size="5.9269">red 2</text>
	
		<rect x="521.1" y="554" fill="none" stroke="#000000" stroke-width="0.5" stroke-linecap="round" stroke-dasharray="12" width="38.3" height="20.9"/>
	<text transform="matrix(1 0 0 1 529.3411 565.7354)" font-family="'MyriadPro-Regular'" font-size="5.9269">orange 1</text>
	
		<rect x="521.1" y="578.1" fill="none" stroke="#000000" stroke-width="0.5" stroke-linecap="round" stroke-dasharray="12" width="38.3" height="20.9"/>
	<text transform="matrix(1 0 0 1 529.3411 589.8624)" font-family="'MyriadPro-Regular'" font-size="5.9269">orange 2</text>
	
		<rect x="521.1" y="602.4" fill="none" stroke="#000000" stroke-width="0.5" stroke-linecap="round" stroke-dasharray="12" width="38.3" height="20.9"/>
	<text transform="matrix(1 0 0 1 530.9114 614.1378)" font-family="'MyriadPro-Regular'" font-size="5.9269">green 2</text>
	<polyline fill="none" stroke="#000000" stroke-miterlimit="10" points="520.3,515.6 510.8,515.6 510.8,612.6 520.3,612.6 	"/>
	<line fill="none" stroke="#000000" stroke-miterlimit="10" x1="521.3" y1="538.6" x2="511.3" y2="538.6"/>
	<line fill="none" stroke="#000000" stroke-miterlimit="10" x1="521.3" y1="590.6" x2="511.3" y2="590.6"/>
	<g>
		
			<rect x="521.1" y="420.6" fill="none" stroke="#000000" stroke-width="0.5" stroke-linecap="round" stroke-dasharray="12" width="38.3" height="20.9"/>
		<text transform="matrix(1 0 0 1 529.3333 432.405)" font-family="'MyriadPro-Regular'" font-size="5.9269">orange 1</text>
		
			<rect x="521.1" y="444.8" fill="none" stroke="#000000" stroke-width="0.5" stroke-linecap="round" stroke-dasharray="12" width="38.3" height="20.9"/>
		<text transform="matrix(1 0 0 1 530.9036 456.5341)" font-family="'MyriadPro-Regular'" font-size="5.9269">green 2</text>
		
			<rect x="521.1" y="396.5" fill="none" stroke="#000000" stroke-width="0.5" stroke-linecap="round" stroke-dasharray="12" width="38.3" height="20.9"/>
		<text transform="matrix(1 0 0 1 534.0184 408.2769)" font-family="'MyriadPro-Regular'" font-size="5.9269">red 1</text>
		
			<rect x="521.1" y="469" fill="none" stroke="#000000" stroke-width="0.5" stroke-linecap="round" stroke-dasharray="12" width="38.3" height="20.9"/>
		<text transform="matrix(1 0 0 1 532.6404 480.8094)" font-family="'MyriadPro-Regular'" font-size="5.9269">blue 1</text>
		<polyline fill="none" stroke="#000000" stroke-miterlimit="10" points="521.3,405.6 510.8,405.6 510.8,478.6 521.3,478.6 		"/>
		<line fill="none" stroke="#000000" stroke-miterlimit="10" x1="521.3" y1="452.6" x2="511.3" y2="452.6"/>
		<line fill="none" stroke="#000000" stroke-miterlimit="10" x1="521.3" y1="427.6" x2="511.3" y2="427.6"/>
	</g>
	<line fill="none" stroke="#000000" stroke-miterlimit="10" x1="510.8" y1="441.5" x2="455.7" y2="355.4"/>
	<g>
		
			<rect x="521.1" y="1060.6" fill="none" stroke="#000000" stroke-width="0.5" stroke-linecap="round" stroke-dasharray="12" width="38.3" height="20.9"/>
		<text transform="matrix(1 0 0 1 529.3333 1072.405)" font-family="'MyriadPro-Regular'" font-size="5.9269">orange 1</text>
		
			<rect x="521.1" y="1084.8" fill="none" stroke="#000000" stroke-width="0.5" stroke-linecap="round" stroke-dasharray="12" width="38.3" height="20.9"/>
		<text transform="matrix(1 0 0 1 530.9036 1096.5341)" font-family="'MyriadPro-Regular'" font-size="5.9269">green 2</text>
		
			<rect x="521.1" y="1036.5" fill="none" stroke="#000000" stroke-width="0.5" stroke-linecap="round" stroke-dasharray="12" width="38.3" height="20.9"/>
		<text transform="matrix(1 0 0 1 534.0184 1048.277)" font-family="'MyriadPro-Regular'" font-size="5.9269">red 1</text>
		
			<rect x="521.1" y="1109" fill="none" stroke="#000000" stroke-width="0.5" stroke-linecap="round" stroke-dasharray="12" width="38.3" height="20.9"/>
		<text transform="matrix(1 0 0 1 532.6404 1120.8094)" font-family="'MyriadPro-Regular'" font-size="5.9269">blue 1</text>
		<polyline fill="none" stroke="#000000" stroke-miterlimit="10" points="521.3,1045.6 510.8,1045.6 510.8,1118.6 521.3,1118.6 		
			"/>
		<line fill="none" stroke="#000000" stroke-miterlimit="10" x1="521.3" y1="1092.6" x2="511.3" y2="1092.6"/>
		<line fill="none" stroke="#000000" stroke-miterlimit="10" x1="521.3" y1="1067.6" x2="511.3" y2="1067.6"/>
	</g>
	<line fill="none" stroke="#000000" stroke-miterlimit="10" x1="510.8" y1="1081.5" x2="453" y2="553.4"/>
	<polyline fill="none" stroke="#000000" stroke-miterlimit="10" points="520.3,564.6 509.3,564.6 455.7,388.7 	"/>
	
		<rect x="521.1" y="909.1" fill="none" stroke="#000000" stroke-width="0.5" stroke-linecap="round" stroke-dasharray="12" width="38.3" height="20.9"/>
	<text transform="matrix(1 0 0 1 534.0184 920.8314)" font-family="'MyriadPro-Regular'" font-size="5.9269">red 1</text>
	
		<rect x="521.1" y="933.3" fill="none" stroke="#000000" stroke-width="0.5" stroke-linecap="round" stroke-dasharray="12" width="38.3" height="20.9"/>
	<text transform="matrix(1 0 0 1 534.0184 945.1068)" font-family="'MyriadPro-Regular'" font-size="5.9269">red 2</text>
	
		<rect x="521.1" y="959" fill="none" stroke="#000000" stroke-width="0.5" stroke-linecap="round" stroke-dasharray="12" width="38.3" height="20.9"/>
	<text transform="matrix(1 0 0 1 529.3411 970.7354)" font-family="'MyriadPro-Regular'" font-size="5.9269">orange 1</text>
	
		<rect x="521.1" y="983.1" fill="none" stroke="#000000" stroke-width="0.5" stroke-linecap="round" stroke-dasharray="12" width="38.3" height="20.9"/>
	<text transform="matrix(1 0 0 1 529.3411 994.8624)" font-family="'MyriadPro-Regular'" font-size="5.9269">orange 2</text>
	
		<rect x="521.1" y="1007.4" fill="none" stroke="#000000" stroke-width="0.5" stroke-linecap="round" stroke-dasharray="12" width="38.3" height="20.9"/>
	<text transform="matrix(1 0 0 1 530.9114 1019.1378)" font-family="'MyriadPro-Regular'" font-size="5.9269">green 2</text>
	<polyline fill="none" stroke="#000000" stroke-miterlimit="10" points="520.3,920.6 510.8,920.6 510.8,1017.6 520.3,1017.6 	"/>
	<line fill="none" stroke="#000000" stroke-miterlimit="10" x1="521.3" y1="943.6" x2="511.3" y2="943.6"/>
	<line fill="none" stroke="#000000" stroke-miterlimit="10" x1="521.3" y1="995.6" x2="511.3" y2="995.6"/>
	<polyline fill="none" stroke="#000000" stroke-miterlimit="10" points="520.3,858.6 511.3,858.6 453,470.2 	"/>
	<polyline fill="none" stroke="#000000" stroke-miterlimit="10" points="520.3,970.6 510.3,970.6 453,518.6 	"/>
	<text transform="matrix(1 0 0 1 15.3528 93.6337)" font-family="'MyriadPro-Regular'" font-size="12">Overall components of website</text>
	<text transform="matrix(1 0 0 1 221.9887 341.4835)" font-family="'MyriadPro-Regular'" font-size="12">Sitemap</text>
	<g>
		<text transform="matrix(1 0 0 1 10.5789 421.2716)" font-family="'MyriadPro-Regular'" font-size="12">Key</text>
		<g>
			<rect x="0.5" y="470.9" fill="none" stroke="#000000" width="38.3" height="20.9"/>
			<text transform="matrix(1 0 0 1 5.3132 482.7236)" font-family="'MyriadPro-Regular'" font-size="5.9269">unaccessed</text>
			<text transform="matrix(1 0 0 1 9.5276 449.7236)"><tspan x="0" y="0" font-family="'MyriadPro-Regular'" font-size="5.9269">possibly</tspan><tspan x="-0.9" y="7.1" font-family="'MyriadPro-Regular'" font-size="5.9269">accessed</tspan></text>
			
				<rect x="0.5" y="441.9" fill="none" stroke="#000000" stroke-width="0.5" stroke-linecap="round" stroke-dasharray="12" width="38.3" height="20.9"/>
		</g>
	</g>
</g>
</svg>
