<?xml version="1.0" encoding="utf-8"?>
<!-- Generator: Adobe Illustrator 18.1.1, SVG Export Plug-In . SVG Version: 6.00 Build 0)  -->
<svg version="1.1" id="Layer_1" xmlns="http://www.w3.org/2000/svg" xmlns:xlink="http://www.w3.org/1999/xlink" x="0px" y="0px"
	 viewBox="0 0 309 501.6" enable-background="new 0 0 309 501.6" xml:space="preserve">
<g>
	<rect x="111.7" y="-408" fill="none" stroke="#000000" width="38.3" height="20.9"/>
	<text transform="matrix(1 0 0 1 118.0987 -396.2628)" font-family="'MyriadPro-Regular'" font-size="5.9269">main page</text>
	<g>
		<rect x="197.6" y="-434.1" fill="none" stroke="#000000" width="38.3" height="20.9"/>
		<text transform="matrix(1 0 0 1 209.4103 -422.3664)" font-family="'MyriadPro-Regular'" font-size="5.9269">about</text>
	</g>
	<g>
		<rect x="197.6" y="-406.7" fill="none" stroke="#000000" width="56.2" height="27.7"/>
		<text transform="matrix(1 0 0 1 215.6264 -394.9092)"><tspan x="0" y="0" font-family="'MyriadPro-Regular'" font-size="5.9269">the MET</tspan><tspan x="-11" y="7.1" font-family="'MyriadPro-Regular'" font-size="5.9269">Museum website</tspan></text>
	</g>
	<g>
		<rect x="197.6" y="-373.9" fill="none" stroke="#000000" width="46.2" height="20.9"/>
		<text transform="matrix(1 0 0 1 203.5722 -362.1093)" font-family="'MyriadPro-Regular'" font-size="5.9269">Yayoi Kusama</text>
	</g>
	<g>
		<rect x="197.6" y="-345.3" fill="none" stroke="#000000" width="38.3" height="20.9"/>
		<text transform="matrix(1 0 0 1 206.6984 -333.5363)" font-family="'MyriadPro-Regular'" font-size="5.9269">Toyo Ito</text>
	</g>
	<g>
		<rect x="197.6" y="-319.3" fill="none" stroke="#000000" width="50.1" height="20.9"/>
		<text transform="matrix(1 0 0 1 203.5445 -307.4865)" font-family="'MyriadPro-Regular'" font-size="5.9269">Hayao Miyazaki</text>
	</g>
	<g>
		<rect x="293.3" y="-373.9" fill="none" stroke="#000000" width="66.4" height="20.9"/>
		<text transform="matrix(1 0 0 1 299.1075 -362.1093)" font-family="'MyriadPro-Regular'" font-size="5.9269">Yayoi Kusama website</text>
	</g>
	<g>
		<rect x="293.3" y="-345.3" fill="none" stroke="#000000" width="51.6" height="20.9"/>
		<text transform="matrix(1 0 0 1 298.7407 -333.5363)" font-family="'MyriadPro-Regular'" font-size="5.9269">Toyo Ito website</text>
	</g>
	<g>
		<rect x="293.3" y="-319.3" fill="none" stroke="#000000" width="68.2" height="20.9"/>
		<text transform="matrix(1 0 0 1 297.9843 -307.4865)" font-family="'MyriadPro-Regular'" font-size="5.9269">Hayao Miyazaki website</text>
	</g>
	<line fill="none" stroke="#000000" x1="243.5" y1="-363" x2="293.5" y2="-363"/>
	<line fill="none" stroke="#000000" x1="150.5" y1="-398" x2="197.5" y2="-398"/>
	<line fill="none" stroke="#000000" x1="236.5" y1="-335" x2="293.5" y2="-335"/>
	<line fill="none" stroke="#000000" x1="247.5" y1="-309" x2="293.5" y2="-309"/>
	<polyline fill="none" stroke="#000000" points="197.5,-425 179,-425 179,-308 197.5,-308 	"/>
	<line fill="none" stroke="#000000" x1="197.5" y1="-363" x2="178.5" y2="-363"/>
	<line fill="none" stroke="#000000" x1="197.5" y1="-335" x2="178.5" y2="-335"/>
</g>
<g>
	<rect x="1102.3" y="138.2" fill="none" stroke="#000000" width="38.3" height="20.9"/>
	<text transform="matrix(1 0 0 1 1108.7316 149.9836)" font-family="'MyriadPro-Regular'" font-size="5.9269">main page</text>
	<rect x="1028.7" y="177" fill="none" stroke="#000000" width="38.3" height="20.9"/>
	<text transform="matrix(1 0 0 1 1041.5914 188.756)" font-family="'MyriadPro-Regular'" font-size="5.9269">red 1</text>
	<rect x="1028.7" y="206" fill="none" stroke="#000000" width="38.3" height="20.9"/>
	<text transform="matrix(1 0 0 1 1041.5914 217.8224)" font-family="'MyriadPro-Regular'" font-size="5.9269">red 2</text>
	<rect x="1076.6" y="177" fill="none" stroke="#000000" width="38.3" height="20.9"/>
	<text transform="matrix(1 0 0 1 1086.3862 188.756)" font-family="'MyriadPro-Regular'" font-size="5.9269">green 1</text>
	<rect x="1076.6" y="206" fill="none" stroke="#000000" width="38.3" height="20.9"/>
	<text transform="matrix(1 0 0 1 1086.3862 217.8224)" font-family="'MyriadPro-Regular'" font-size="5.9269">green 2</text>
	<rect x="1126" y="177" fill="none" stroke="#000000" width="38.3" height="20.9"/>
	<text transform="matrix(1 0 0 1 1134.2064 188.756)" font-family="'MyriadPro-Regular'" font-size="5.9269">orange 1</text>
	<rect x="1126" y="206" fill="none" stroke="#000000" width="38.3" height="20.9"/>
	<text transform="matrix(1 0 0 1 1134.2064 217.8224)" font-family="'MyriadPro-Regular'" font-size="5.9269">orange 2</text>
	<rect x="1126" y="235.3" fill="none" stroke="#000000" width="38.3" height="20.9"/>
	<text transform="matrix(1 0 0 1 1134.2064 247.0372)" font-family="'MyriadPro-Regular'" font-size="5.9269">orange 3</text>
	<rect x="1172.5" y="177" fill="none" stroke="#000000" width="38.3" height="20.9"/>
	<text transform="matrix(1 0 0 1 1184.0411 188.756)" font-family="'MyriadPro-Regular'" font-size="5.9269">blue 1</text>
	<polyline fill="none" stroke="#000000" stroke-miterlimit="10" points="1048,176.5 1048,168 1191,168 1191,176.5 	"/>
	<line fill="none" stroke="#000000" stroke-miterlimit="10" x1="1145" y1="167.5" x2="1145" y2="176.5"/>
	<line fill="none" stroke="#000000" x1="1096" y1="167.5" x2="1096" y2="177.5"/>
	<line fill="none" stroke="#000000" x1="1119" y1="159.5" x2="1119" y2="167.5"/>
</g>
<rect x="1319.4" y="344.6" fill="none" stroke="#000000" width="38.3" height="20.9"/>
<text transform="matrix(1 0 0 1 1325.8057 356.3772)" font-family="'MyriadPro-Regular'" font-size="5.9269">main page</text>
<g>
	<rect x="1375.7" y="315.5" fill="none" stroke="#000000" width="38.3" height="20.9"/>
	<text transform="matrix(1 0 0 1 1388.5646 327.3108)" font-family="'MyriadPro-Regular'" font-size="5.9269">red 1</text>
</g>
<g>
	<rect x="1375.7" y="344.6" fill="none" stroke="#000000" width="38.3" height="20.9"/>
	<text transform="matrix(1 0 0 1 1383.8795 356.3772)" font-family="'MyriadPro-Regular'" font-size="5.9269">orange 1</text>
</g>
<g>
	<rect x="1375.7" y="373.8" fill="none" stroke="#000000" width="38.3" height="20.9"/>
	<text transform="matrix(1 0 0 1 1387.1866 385.5919)" font-family="'MyriadPro-Regular'" font-size="5.9269">blue 1</text>
</g>
<g>
	<rect x="1375.7" y="402.5" fill="none" stroke="#000000" width="38.3" height="20.9"/>
	<text transform="matrix(1 0 0 1 1385.4498 414.2381)" font-family="'MyriadPro-Regular'" font-size="5.9269">green 1</text>
</g>
<g>
	<rect x="1445.8" y="226.1" fill="none" stroke="#000000" width="38.3" height="20.9"/>
	<text transform="matrix(1 0 0 1 1455.5844 237.8389)" font-family="'MyriadPro-Regular'" font-size="5.9269">green 2</text>
</g>
<rect x="1445.8" y="255.1" fill="none" stroke="#000000" stroke-width="0.5" stroke-linecap="round" stroke-dasharray="12" width="38.3" height="20.9"/>
<text transform="matrix(1 0 0 1 1454.014 266.9063)" font-family="'MyriadPro-Regular'" font-size="5.9269">orange 1</text>
<rect x="1445.8" y="197" fill="none" stroke="#000000" stroke-width="0.5" stroke-linecap="round" stroke-dasharray="12" width="38.3" height="20.9"/>
<text transform="matrix(1 0 0 1 1455.5844 208.7715)" font-family="'MyriadPro-Regular'" font-size="5.9269">green 1</text>
<g>
	<rect x="1445.8" y="284.3" fill="none" stroke="#000000" width="38.3" height="20.9"/>
	<text transform="matrix(1 0 0 1 1454.014 296.1201)" font-family="'MyriadPro-Regular'" font-size="5.9269">orange 2</text>
</g>
<rect x="1442.8" y="454" fill="none" stroke="#000000" stroke-width="0.5" stroke-linecap="round" stroke-dasharray="12" width="38.3" height="20.9"/>
<text transform="matrix(1 0 0 1 1455.7358 465.8243)" font-family="'MyriadPro-Regular'" font-size="5.9269">red 1</text>
<rect x="1442.8" y="478.2" fill="none" stroke="#000000" width="38.3" height="20.9"/>
<text transform="matrix(1 0 0 1 1455.7358 489.9514)" font-family="'MyriadPro-Regular'" font-size="5.9269">red 2</text>
<rect x="1442.8" y="502.4" fill="none" stroke="#000000" stroke-width="0.5" stroke-linecap="round" stroke-dasharray="12" width="38.3" height="20.9"/>
<text transform="matrix(1 0 0 1 1451.0508 514.2268)" font-family="'MyriadPro-Regular'" font-size="5.9269">orange 1</text>
<rect x="1445.8" y="314.9" fill="none" stroke="#000000" stroke-width="0.5" stroke-linecap="round" stroke-dasharray="12" width="38.3" height="20.9"/>
<text transform="matrix(1 0 0 1 1458.707 326.6874)" font-family="'MyriadPro-Regular'" font-size="5.9269">red 1</text>
<rect x="1445.8" y="339" fill="none" stroke="#000000" width="38.3" height="20.9"/>
<text transform="matrix(1 0 0 1 1458.707 350.8164)" font-family="'MyriadPro-Regular'" font-size="5.9269">red 2</text>
<rect x="1445.8" y="395.3" fill="none" stroke="#000000" width="38.3" height="20.9"/>
<text transform="matrix(1 0 0 1 1454.022 407.1131)" font-family="'MyriadPro-Regular'" font-size="5.9269">orange 2</text>
<rect x="1445.8" y="419.5" fill="none" stroke="#000000" width="38.3" height="20.9"/>
<text transform="matrix(1 0 0 1 1455.5923 431.2412)" font-family="'MyriadPro-Regular'" font-size="5.9269">green 2</text>
<rect x="1445.8" y="363.3" fill="none" stroke="#000000" width="38.3" height="20.9"/>
<text transform="matrix(1 0 0 1 1454.022 375.0908)" font-family="'MyriadPro-Regular'" font-size="5.9269">orange 3</text>
<rect x="1549.3" y="42.8" fill="none" stroke="#000000" stroke-width="0.5" stroke-linecap="round" stroke-dasharray="12" width="38.3" height="20.9"/>
<text transform="matrix(1 0 0 1 1562.2207 54.5626)" font-family="'MyriadPro-Regular'" font-size="5.9269">red 2</text>
<rect x="1549.3" y="66.9" fill="none" stroke="#000000" stroke-width="0.5" stroke-linecap="round" stroke-dasharray="12" width="38.3" height="20.9"/>
<text transform="matrix(1 0 0 1 1557.5356 78.6917)" font-family="'MyriadPro-Regular'" font-size="5.9269">orange 1</text>
<rect x="1549.3" y="18.7" fill="none" stroke="#000000" stroke-width="0.5" stroke-linecap="round" stroke-dasharray="12" width="38.3" height="20.9"/>
<text transform="matrix(1 0 0 1 1562.2207 30.4345)" font-family="'MyriadPro-Regular'" font-size="5.9269">red 1</text>
<rect x="1549.3" y="91.2" fill="none" stroke="#000000" stroke-width="0.5" stroke-linecap="round" stroke-dasharray="12" width="38.3" height="20.9"/>
<text transform="matrix(1 0 0 1 1557.5356 102.967)" font-family="'MyriadPro-Regular'" font-size="5.9269">orange 2</text>
<rect x="1549.3" y="116.8" fill="none" stroke="#000000" stroke-width="0.5" stroke-linecap="round" stroke-dasharray="12" width="38.3" height="20.9"/>
<text transform="matrix(1 0 0 1 1557.5435 128.5946)" font-family="'MyriadPro-Regular'" font-size="5.9269">orange 3</text>
<rect x="1549.3" y="140.9" fill="none" stroke="#000000" stroke-width="0.5" stroke-linecap="round" stroke-dasharray="12" width="38.3" height="20.9"/>
<text transform="matrix(1 0 0 1 1559.1138 152.7226)" font-family="'MyriadPro-Regular'" font-size="5.9269">green 1</text>
<rect x="1549.3" y="165.2" fill="none" stroke="#000000" stroke-width="0.5" stroke-linecap="round" stroke-dasharray="12" width="38.3" height="20.9"/>
<text transform="matrix(1 0 0 1 1560.8506 176.998)" font-family="'MyriadPro-Regular'" font-size="5.9269">blue 1</text>
<rect x="1549.9" y="331.2" fill="none" stroke="#000000" stroke-width="0.5" stroke-linecap="round" stroke-dasharray="12" width="38.3" height="20.9"/>
<text transform="matrix(1 0 0 1 1558.0836 342.9583)" font-family="'MyriadPro-Regular'" font-size="5.9269">orange 3</text>
<rect x="1549.9" y="355.3" fill="none" stroke="#000000" stroke-width="0.5" stroke-linecap="round" stroke-dasharray="12" width="38.3" height="20.9"/>
<text transform="matrix(1 0 0 1 1559.6539 367.0858)" font-family="'MyriadPro-Regular'" font-size="5.9269">green 1</text>
<rect x="1549.9" y="379.6" fill="none" stroke="#000000" stroke-width="0.5" stroke-linecap="round" stroke-dasharray="12" width="38.3" height="20.9"/>
<text transform="matrix(1 0 0 1 1561.3907 391.3612)" font-family="'MyriadPro-Regular'" font-size="5.9269">blue 1</text>
<rect x="1442.8" y="526.7" fill="none" stroke="#000000" width="38.3" height="20.9"/>
<text transform="matrix(1 0 0 1 1451.0508 538.5022)" font-family="'MyriadPro-Regular'" font-size="5.9269">orange 2</text>
<rect x="1442.8" y="550.9" fill="none" stroke="#000000" width="38.3" height="20.9"/>
<text transform="matrix(1 0 0 1 1451.0508 562.7029)" font-family="'MyriadPro-Regular'" font-size="5.9269">orange 3</text>
<line fill="none" stroke="#000000" stroke-miterlimit="10" x1="1357.5" y1="355" x2="1375.5" y2="355"/>
<polyline fill="none" stroke="#000000" stroke-miterlimit="10" points="1375.5,326 1364,326 1364,411 1375.5,411 "/>
<line fill="none" stroke="#000000" stroke-miterlimit="10" x1="1375.5" y1="384" x2="1363.5" y2="384"/>
<polyline fill="none" stroke="#000000" stroke-miterlimit="10" points="1445.5,208 1436,208 1436,295 1445.5,295 "/>
<polyline fill="none" stroke="#000000" stroke-miterlimit="10" points="1549.5,30 1539,30 1539,175 1549.5,175 "/>
<polyline fill="none" stroke="#000000" stroke-miterlimit="10" points="1549.5,340 1540,340 1540,389 1549.5,389 "/>
<polyline fill="none" stroke="#000000" stroke-miterlimit="10" points="1445.5,265 1435.3,265 1413.9,326.9 "/>
<polyline fill="none" stroke="#000000" stroke-miterlimit="10" points="1442.5,465 1432,465 1432,561 1442.5,561 "/>
<line fill="none" stroke="#000000" stroke-miterlimit="10" x1="1442.5" y1="489" x2="1431.5" y2="489"/>
<line fill="none" stroke="#000000" stroke-miterlimit="10" x1="1442.5" y1="537" x2="1431.5" y2="537"/>
<polyline fill="none" stroke="#000000" stroke-miterlimit="10" points="1413.9,410.8 1433.2,513 1442.5,513 "/>
<polyline fill="none" stroke="#000000" stroke-miterlimit="10" points="1445.5,326 1435,326 1435,371 1445.5,371 "/>
<polyline fill="none" stroke="#000000" stroke-miterlimit="10" points="1445.5,406 1435,406 1435,428 1445.5,428 "/>
<polyline fill="none" stroke="#000000" stroke-miterlimit="10" points="1413.9,355.2 1434.8,351 1445.5,351 "/>
<line fill="none" stroke="#000000" stroke-miterlimit="10" x1="1414" y1="384.2" x2="1435.1" y2="415.5"/>
<line fill="none" stroke="#000000" stroke-miterlimit="10" x1="1435.5" y1="237" x2="1445.5" y2="237"/>
<line fill="none" stroke="#000000" stroke-miterlimit="10" x1="1549.5" y1="54" x2="1539.5" y2="54"/>
<line fill="none" stroke="#000000" stroke-miterlimit="10" x1="1549.5" y1="77" x2="1539.5" y2="77"/>
<line fill="none" stroke="#000000" stroke-miterlimit="10" x1="1549.5" y1="127" x2="1539.5" y2="127"/>
<line fill="none" stroke="#000000" stroke-miterlimit="10" x1="1549.5" y1="151" x2="1539.5" y2="151"/>
<polyline fill="none" stroke="#000000" stroke-miterlimit="10" points="1485.5,236.5 1544.3,102 1549.5,102 "/>
<rect x="1549.3" y="677.8" fill="none" stroke="#000000" stroke-width="0.5" stroke-linecap="round" stroke-dasharray="12" width="38.3" height="20.9"/>
<text transform="matrix(1 0 0 1 1562.2207 689.5626)" font-family="'MyriadPro-Regular'" font-size="5.9269">red 2</text>
<rect x="1549.3" y="701.9" fill="none" stroke="#000000" stroke-width="0.5" stroke-linecap="round" stroke-dasharray="12" width="38.3" height="20.9"/>
<text transform="matrix(1 0 0 1 1557.5356 713.6917)" font-family="'MyriadPro-Regular'" font-size="5.9269">orange 1</text>
<rect x="1549.3" y="653.7" fill="none" stroke="#000000" stroke-width="0.5" stroke-linecap="round" stroke-dasharray="12" width="38.3" height="20.9"/>
<text transform="matrix(1 0 0 1 1562.2207 665.4346)" font-family="'MyriadPro-Regular'" font-size="5.9269">red 1</text>
<rect x="1549.3" y="726.2" fill="none" stroke="#000000" stroke-width="0.5" stroke-linecap="round" stroke-dasharray="12" width="38.3" height="20.9"/>
<text transform="matrix(1 0 0 1 1557.5356 737.967)" font-family="'MyriadPro-Regular'" font-size="5.9269">orange 2</text>
<rect x="1549.3" y="751.8" fill="none" stroke="#000000" stroke-width="0.5" stroke-linecap="round" stroke-dasharray="12" width="38.3" height="20.9"/>
<text transform="matrix(1 0 0 1 1557.5435 763.5946)" font-family="'MyriadPro-Regular'" font-size="5.9269">orange 3</text>
<rect x="1549.3" y="775.9" fill="none" stroke="#000000" stroke-width="0.5" stroke-linecap="round" stroke-dasharray="12" width="38.3" height="20.9"/>
<text transform="matrix(1 0 0 1 1559.1138 787.7227)" font-family="'MyriadPro-Regular'" font-size="5.9269">green 1</text>
<rect x="1549.3" y="800.2" fill="none" stroke="#000000" stroke-width="0.5" stroke-linecap="round" stroke-dasharray="12" width="38.3" height="20.9"/>
<text transform="matrix(1 0 0 1 1560.8506 811.998)" font-family="'MyriadPro-Regular'" font-size="5.9269">blue 1</text>
<polyline fill="none" stroke="#000000" stroke-miterlimit="10" points="1549.5,665 1539,665 1539,810 1549.5,810 "/>
<line fill="none" stroke="#000000" stroke-miterlimit="10" x1="1549.5" y1="689" x2="1539.5" y2="689"/>
<line fill="none" stroke="#000000" stroke-miterlimit="10" x1="1549.5" y1="712" x2="1539.5" y2="712"/>
<line fill="none" stroke="#000000" stroke-miterlimit="10" x1="1549.5" y1="762" x2="1539.5" y2="762"/>
<line fill="none" stroke="#000000" stroke-miterlimit="10" x1="1549.5" y1="786" x2="1539.5" y2="786"/>
<polyline fill="none" stroke="#000000" stroke-miterlimit="10" points="1484.1,440.3 1544.2,737 1549.5,737 "/>
<polyline fill="none" stroke="#000000" stroke-miterlimit="10" points="1549.5,366 1539.1,366 1481.2,349.5 "/>
<rect x="1549.9" y="842.2" fill="none" stroke="#000000" stroke-width="0.5" stroke-linecap="round" stroke-dasharray="12" width="38.3" height="20.9"/>
<text transform="matrix(1 0 0 1 1558.0836 853.9583)" font-family="'MyriadPro-Regular'" font-size="5.9269">orange 3</text>
<rect x="1549.9" y="866.3" fill="none" stroke="#000000" stroke-width="0.5" stroke-linecap="round" stroke-dasharray="12" width="38.3" height="20.9"/>
<text transform="matrix(1 0 0 1 1559.6539 878.0858)" font-family="'MyriadPro-Regular'" font-size="5.9269">green 1</text>
<rect x="1549.9" y="890.6" fill="none" stroke="#000000" stroke-width="0.5" stroke-linecap="round" stroke-dasharray="12" width="38.3" height="20.9"/>
<text transform="matrix(1 0 0 1 1561.3907 902.3612)" font-family="'MyriadPro-Regular'" font-size="5.9269">blue 1</text>
<polyline fill="none" stroke="#000000" stroke-miterlimit="10" points="1549.5,851 1540,851 1540,900 1549.5,900 "/>
<rect x="1549.3" y="195.5" fill="none" stroke="#000000" stroke-width="0.5" stroke-linecap="round" stroke-dasharray="12" width="38.3" height="20.9"/>
<text transform="matrix(1 0 0 1 1562.2207 207.2366)" font-family="'MyriadPro-Regular'" font-size="5.9269">red 1</text>
<rect x="1549.3" y="219.7" fill="none" stroke="#000000" stroke-width="0.5" stroke-linecap="round" stroke-dasharray="12" width="38.3" height="20.9"/>
<text transform="matrix(1 0 0 1 1562.2207 231.512)" font-family="'MyriadPro-Regular'" font-size="5.9269">red 2</text>
<rect x="1549.3" y="245.4" fill="none" stroke="#000000" stroke-width="0.5" stroke-linecap="round" stroke-dasharray="12" width="38.3" height="20.9"/>
<text transform="matrix(1 0 0 1 1557.5435 257.1405)" font-family="'MyriadPro-Regular'" font-size="5.9269">orange 1</text>
<rect x="1549.3" y="269.5" fill="none" stroke="#000000" stroke-width="0.5" stroke-linecap="round" stroke-dasharray="12" width="38.3" height="20.9"/>
<text transform="matrix(1 0 0 1 1557.5435 281.2676)" font-family="'MyriadPro-Regular'" font-size="5.9269">orange 2</text>
<rect x="1549.3" y="293.8" fill="none" stroke="#000000" stroke-width="0.5" stroke-linecap="round" stroke-dasharray="12" width="38.3" height="20.9"/>
<text transform="matrix(1 0 0 1 1559.1138 305.543)" font-family="'MyriadPro-Regular'" font-size="5.9269">green 2</text>
<polyline fill="none" stroke="#000000" stroke-miterlimit="10" points="1548.5,207 1539,207 1539,304 1548.5,304 "/>
<line fill="none" stroke="#000000" stroke-miterlimit="10" x1="1549.5" y1="230" x2="1539.5" y2="230"/>
<line fill="none" stroke="#000000" stroke-miterlimit="10" x1="1549.5" y1="282" x2="1539.5" y2="282"/>
<polyline fill="none" stroke="#000000" stroke-miterlimit="10" points="1483.9,296.1 1539.5,256 1549.5,256 "/>
<rect x="1549.3" y="522.5" fill="none" stroke="#000000" stroke-width="0.5" stroke-linecap="round" stroke-dasharray="12" width="38.3" height="20.9"/>
<text transform="matrix(1 0 0 1 1562.2207 534.2366)" font-family="'MyriadPro-Regular'" font-size="5.9269">red 1</text>
<rect x="1549.3" y="546.7" fill="none" stroke="#000000" stroke-width="0.5" stroke-linecap="round" stroke-dasharray="12" width="38.3" height="20.9"/>
<text transform="matrix(1 0 0 1 1562.2207 558.512)" font-family="'MyriadPro-Regular'" font-size="5.9269">red 2</text>
<rect x="1549.3" y="572.4" fill="none" stroke="#000000" stroke-width="0.5" stroke-linecap="round" stroke-dasharray="12" width="38.3" height="20.9"/>
<text transform="matrix(1 0 0 1 1557.5435 584.1405)" font-family="'MyriadPro-Regular'" font-size="5.9269">orange 1</text>
<rect x="1549.3" y="596.5" fill="none" stroke="#000000" stroke-width="0.5" stroke-linecap="round" stroke-dasharray="12" width="38.3" height="20.9"/>
<text transform="matrix(1 0 0 1 1557.5435 608.2676)" font-family="'MyriadPro-Regular'" font-size="5.9269">orange 2</text>
<rect x="1549.3" y="620.8" fill="none" stroke="#000000" stroke-width="0.5" stroke-linecap="round" stroke-dasharray="12" width="38.3" height="20.9"/>
<text transform="matrix(1 0 0 1 1559.1138 632.543)" font-family="'MyriadPro-Regular'" font-size="5.9269">green 2</text>
<polyline fill="none" stroke="#000000" stroke-miterlimit="10" points="1548.5,534 1539,534 1539,631 1548.5,631 "/>
<line fill="none" stroke="#000000" stroke-miterlimit="10" x1="1549.5" y1="557" x2="1539.5" y2="557"/>
<line fill="none" stroke="#000000" stroke-miterlimit="10" x1="1549.5" y1="609" x2="1539.5" y2="609"/>
<g>
	
		<rect x="1549.3" y="439" fill="none" stroke="#000000" stroke-width="0.5" stroke-linecap="round" stroke-dasharray="12" width="38.3" height="20.9"/>
	<text transform="matrix(1 0 0 1 1557.5356 450.8102)" font-family="'MyriadPro-Regular'" font-size="5.9269">orange 1</text>
	
		<rect x="1549.3" y="463.2" fill="none" stroke="#000000" stroke-width="0.5" stroke-linecap="round" stroke-dasharray="12" width="38.3" height="20.9"/>
	<text transform="matrix(1 0 0 1 1559.106 474.9392)" font-family="'MyriadPro-Regular'" font-size="5.9269">green 2</text>
	
		<rect x="1549.3" y="414.9" fill="none" stroke="#000000" stroke-width="0.5" stroke-linecap="round" stroke-dasharray="12" width="38.3" height="20.9"/>
	<text transform="matrix(1 0 0 1 1562.2207 426.6821)" font-family="'MyriadPro-Regular'" font-size="5.9269">red 1</text>
	
		<rect x="1549.3" y="487.4" fill="none" stroke="#000000" stroke-width="0.5" stroke-linecap="round" stroke-dasharray="12" width="38.3" height="20.9"/>
	<text transform="matrix(1 0 0 1 1560.8428 499.2146)" font-family="'MyriadPro-Regular'" font-size="5.9269">blue 1</text>
	<polyline fill="none" stroke="#000000" stroke-miterlimit="10" points="1549.5,424 1539,424 1539,497 1549.5,497 	"/>
	<line fill="none" stroke="#000000" stroke-miterlimit="10" x1="1549.5" y1="471" x2="1539.5" y2="471"/>
	<line fill="none" stroke="#000000" stroke-miterlimit="10" x1="1549.5" y1="446" x2="1539.5" y2="446"/>
</g>
<line fill="none" stroke="#000000" stroke-miterlimit="10" x1="1539" y1="459.9" x2="1483.9" y2="373.8"/>
<g>
	
		<rect x="1549.3" y="1079" fill="none" stroke="#000000" stroke-width="0.5" stroke-linecap="round" stroke-dasharray="12" width="38.3" height="20.9"/>
	<text transform="matrix(1 0 0 1 1557.5356 1090.8102)" font-family="'MyriadPro-Regular'" font-size="5.9269">orange 1</text>
	
		<rect x="1549.3" y="1103.2" fill="none" stroke="#000000" stroke-width="0.5" stroke-linecap="round" stroke-dasharray="12" width="38.3" height="20.9"/>
	<text transform="matrix(1 0 0 1 1559.106 1114.9392)" font-family="'MyriadPro-Regular'" font-size="5.9269">green 2</text>
	
		<rect x="1549.3" y="1054.9" fill="none" stroke="#000000" stroke-width="0.5" stroke-linecap="round" stroke-dasharray="12" width="38.3" height="20.9"/>
	<text transform="matrix(1 0 0 1 1562.2207 1066.6821)" font-family="'MyriadPro-Regular'" font-size="5.9269">red 1</text>
	
		<rect x="1549.3" y="1127.4" fill="none" stroke="#000000" stroke-width="0.5" stroke-linecap="round" stroke-dasharray="12" width="38.3" height="20.9"/>
	<text transform="matrix(1 0 0 1 1560.8428 1139.2146)" font-family="'MyriadPro-Regular'" font-size="5.9269">blue 1</text>
	<polyline fill="none" stroke="#000000" stroke-miterlimit="10" points="1549.5,1064 1539,1064 1539,1137 1549.5,1137 	"/>
	<line fill="none" stroke="#000000" stroke-miterlimit="10" x1="1549.5" y1="1111" x2="1539.5" y2="1111"/>
	<line fill="none" stroke="#000000" stroke-miterlimit="10" x1="1549.5" y1="1086" x2="1539.5" y2="1086"/>
</g>
<line fill="none" stroke="#000000" stroke-miterlimit="10" x1="1539" y1="1099.9" x2="1481.2" y2="571.8"/>
<polyline fill="none" stroke="#000000" stroke-miterlimit="10" points="1548.5,583 1537.5,583 1483.9,407.1 "/>
<rect x="1549.3" y="927.5" fill="none" stroke="#000000" stroke-width="0.5" stroke-linecap="round" stroke-dasharray="12" width="38.3" height="20.9"/>
<text transform="matrix(1 0 0 1 1562.2207 939.2366)" font-family="'MyriadPro-Regular'" font-size="5.9269">red 1</text>
<rect x="1549.3" y="951.7" fill="none" stroke="#000000" stroke-width="0.5" stroke-linecap="round" stroke-dasharray="12" width="38.3" height="20.9"/>
<text transform="matrix(1 0 0 1 1562.2207 963.512)" font-family="'MyriadPro-Regular'" font-size="5.9269">red 2</text>
<rect x="1549.3" y="977.4" fill="none" stroke="#000000" stroke-width="0.5" stroke-linecap="round" stroke-dasharray="12" width="38.3" height="20.9"/>
<text transform="matrix(1 0 0 1 1557.5435 989.1405)" font-family="'MyriadPro-Regular'" font-size="5.9269">orange 1</text>
<rect x="1549.3" y="1001.5" fill="none" stroke="#000000" stroke-width="0.5" stroke-linecap="round" stroke-dasharray="12" width="38.3" height="20.9"/>
<text transform="matrix(1 0 0 1 1557.5435 1013.2676)" font-family="'MyriadPro-Regular'" font-size="5.9269">orange 2</text>
<rect x="1549.3" y="1025.8" fill="none" stroke="#000000" stroke-width="0.5" stroke-linecap="round" stroke-dasharray="12" width="38.3" height="20.9"/>
<text transform="matrix(1 0 0 1 1559.1138 1037.543)" font-family="'MyriadPro-Regular'" font-size="5.9269">green 2</text>
<polyline fill="none" stroke="#000000" stroke-miterlimit="10" points="1548.5,939 1539,939 1539,1036 1548.5,1036 "/>
<line fill="none" stroke="#000000" stroke-miterlimit="10" x1="1549.5" y1="962" x2="1539.5" y2="962"/>
<line fill="none" stroke="#000000" stroke-miterlimit="10" x1="1549.5" y1="1014" x2="1539.5" y2="1014"/>
<polyline fill="none" stroke="#000000" stroke-miterlimit="10" points="1548.5,877 1539.5,877 1481.2,488.6 "/>
<polyline fill="none" stroke="#000000" stroke-miterlimit="10" points="1548.5,989 1538.5,989 1481.2,537 "/>
<text transform="matrix(1 0 0 1 1043.5552 112.0389)" font-family="'MyriadPro-Regular'" font-size="12">Overall components of website</text>
<text transform="matrix(1 0 0 1 1250.1909 359.8886)" font-family="'MyriadPro-Regular'" font-size="12">Sitemap</text>
<g>
	<text transform="matrix(1 0 0 1 1038.7811 439.6767)" font-family="'MyriadPro-Regular'" font-size="12">Key</text>
	<g>
		<rect x="1028.7" y="489.3" fill="none" stroke="#000000" width="38.3" height="20.9"/>
		<text transform="matrix(1 0 0 1 1033.5155 501.1288)" font-family="'MyriadPro-Regular'" font-size="5.9269">unaccessed</text>
		<text transform="matrix(1 0 0 1 1037.7299 468.1288)"><tspan x="0" y="0" font-family="'MyriadPro-Regular'" font-size="5.9269">possibly</tspan><tspan x="-0.9" y="7.1" font-family="'MyriadPro-Regular'" font-size="5.9269">accessed</tspan></text>
		
			<rect x="1028.7" y="460.3" fill="none" stroke="#000000" stroke-width="0.5" stroke-linecap="round" stroke-dasharray="12" width="38.3" height="20.9"/>
	</g>
</g>
<text transform="matrix(1 0 0 1 -13.5 -153.3083)"><tspan x="0" y="0" font-family="'MyriadPro-Regular'" font-size="12">index.html to image.jpg:</tspan><tspan x="126.8" y="0" font-family="'MyriadPro-Regular'" font-size="12" letter-spacing="14">	</tspan><tspan x="144.2" y="0" font-family="'MyriadPro-Regular'" font-size="12" letter-spacing="33">	</tspan><tspan x="180" y="0" font-family="'MyriadPro-Regular'" font-size="12">“images/image.jpg”</tspan><tspan x="0" y="19" font-family="'MyriadPro-Regular'" font-size="12">index.html to jquery-2.1.1.min.js:</tspan><tspan x="169.5" y="19" font-family="'MyriadPro-Regular'" font-size="12" letter-spacing="8">	</tspan><tspan x="180.2" y="19" font-family="'MyriadPro-Regular'" font-size="12">“js/vendor/jquery-2.1.1.min.js”</tspan><tspan x="0" y="38" font-family="'MyriadPro-Regular'" font-size="12">jquery-2.1.1.min.js to main.css:</tspan><tspan x="158" y="38" font-family="'MyriadPro-Regular'" font-size="12" letter-spacing="19">	</tspan><tspan x="180.2" y="38" font-family="'MyriadPro-Regular'" font-size="12">“../../css/main.css”</tspan><tspan x="0" y="57" font-family="'MyriadPro-Regular'" font-size="12">main.css to script.js:</tspan><tspan x="102.8" y="57" font-family="'MyriadPro-Regular'" font-size="12" letter-spacing="2">	</tspan><tspan x="108.2" y="57" font-family="'MyriadPro-Regular'" font-size="12" letter-spacing="33">	</tspan><tspan x="144" y="57" font-family="'MyriadPro-Regular'" font-size="12" letter-spacing="33">	</tspan><tspan x="180" y="57" font-family="'MyriadPro-Regular'" font-size="12">“../js/script.js”</tspan></text>
<rect x="0.5" y="0.5" fill="none" stroke="#000000" stroke-miterlimit="10" width="308" height="500.6"/>
<rect x="53.7" y="30.4" fill="none" stroke="#000000" stroke-miterlimit="10" width="163.1" height="470.7"/>
<rect x="0.5" y="0.5" fill="none" stroke="#000000" stroke-miterlimit="10" width="308" height="29.9"/>
<rect x="79.7" y="176.2" fill="none" stroke="#000000" stroke-miterlimit="10" width="170.9" height="119.1"/>
<circle fill="none" stroke="#000000" stroke-miterlimit="10" cx="53.5" cy="93.6" r="35"/>
<circle fill="none" stroke="#000000" stroke-miterlimit="10" cx="200.5" cy="176.6" r="35"/>
<circle fill="none" stroke="#000000" stroke-miterlimit="10" cx="53.5" cy="314.6" r="35"/>
<circle fill="none" stroke="#000000" stroke-miterlimit="10" cx="222.5" cy="407.6" r="35"/>
<circle fill="none" stroke="#000000" stroke-miterlimit="10" cx="225.5" cy="78.6" r="35"/>
</svg>
