<?xml version="1.0" encoding="utf-8"?>
<!-- Generator: Adobe Illustrator 18.1.1, SVG Export Plug-In . SVG Version: 6.00 Build 0)  -->
<svg version="1.1" xmlns="http://www.w3.org/2000/svg" xmlns:xlink="http://www.w3.org/1999/xlink" x="0px" y="0px"
	 viewBox="0 0 89.7 242.1" enable-background="new 0 0 89.7 242.1" xml:space="preserve">
<g id="Layer_2">
</g>
<g id="Layer_1">
	<g>
		<path fill="none" stroke="#020202" stroke-width="1.5" stroke-miterlimit="10" d="M88.9,35c0,13.8-7.6,27.8-22.8,33.2
			c-4.6,1.7-11.7,1.3-17.7,1.1c0,4,2,127.5,3,135.9c1,8.5,9,17,11.5,21.5s3,6,3,10s-7,4.5-18.1,4.5s-16.9-3.5-16.9-8.5
			s12.5-21,13.9-27.5c1.4-6.5,0-136,0-136c-8.1,0-17.4,0.5-23.9-2.5C7.9,60.8,0.8,47.6,0.8,35c0-18.9,19.7-34.3,44.1-34.3
			S88.9,16.1,88.9,35z"/>
		<ellipse fill="none" stroke="#020202" stroke-width="1.5" stroke-miterlimit="10" cx="44.8" cy="42.1" rx="31.8" ry="24.5"/>
	</g>
</g>
</svg>
