<?xml version="1.0" encoding="utf-8"?>
<!-- Generator: Adobe Illustrator 18.1.1, SVG Export Plug-In . SVG Version: 6.00 Build 0)  -->
<svg version="1.1" id="Layer_1" xmlns="http://www.w3.org/2000/svg" xmlns:xlink="http://www.w3.org/1999/xlink" x="0px" y="0px"
	 viewBox="0 0 250.9 136.7" enable-background="new 0 0 250.9 136.7" xml:space="preserve">
<g>
	<rect x="0.5" y="26.6" fill="none" stroke="#000000" width="38.3" height="20.9"/>
	<text transform="matrix(1 0 0 1 6.9366 38.3832)" font-family="'MyriadPro-Regular'" font-size="5.9269">main page</text>
	<g>
		<rect x="86.4" y="0.5" fill="none" stroke="#000000" width="38.3" height="20.9"/>
		<text transform="matrix(1 0 0 1 98.2481 12.2796)" font-family="'MyriadPro-Regular'" font-size="5.9269">about</text>
	</g>
	<g>
		<rect x="86.4" y="28" fill="none" stroke="#000000" width="56.2" height="27.7"/>
		<text transform="matrix(1 0 0 1 104.4642 39.7368)"><tspan x="0" y="0" font-family="'MyriadPro-Regular'" font-size="5.9269">the MET</tspan><tspan x="-11" y="7.1" font-family="'MyriadPro-Regular'" font-size="5.9269">Museum website</tspan></text>
	</g>
	<g>
		<rect x="86.4" y="60.8" fill="none" stroke="#000000" width="46.2" height="20.9"/>
		<text transform="matrix(1 0 0 1 92.41 72.5367)" font-family="'MyriadPro-Regular'" font-size="5.9269">Yayoi Kusama</text>
	</g>
	<g>
		<rect x="86.4" y="89.3" fill="none" stroke="#000000" width="38.3" height="20.9"/>
		<text transform="matrix(1 0 0 1 95.5362 101.1097)" font-family="'MyriadPro-Regular'" font-size="5.9269">Toyo Ito</text>
	</g>
	<g>
		<rect x="86.4" y="115.4" fill="none" stroke="#000000" width="50.1" height="20.9"/>
		<text transform="matrix(1 0 0 1 92.3824 127.1595)" font-family="'MyriadPro-Regular'" font-size="5.9269">Hayao Miyazaki</text>
	</g>
	<g>
		<rect x="182.2" y="60.8" fill="none" stroke="#000000" width="66.4" height="20.9"/>
		<text transform="matrix(1 0 0 1 187.9454 72.5367)" font-family="'MyriadPro-Regular'" font-size="5.9269">Yayoi Kusama website</text>
	</g>
	<g>
		<rect x="182.2" y="89.3" fill="none" stroke="#000000" width="51.6" height="20.9"/>
		<text transform="matrix(1 0 0 1 187.5786 101.1097)" font-family="'MyriadPro-Regular'" font-size="5.9269">Toyo Ito website</text>
	</g>
	<g>
		<rect x="182.2" y="115.4" fill="none" stroke="#000000" width="68.2" height="20.9"/>
		<text transform="matrix(1 0 0 1 186.8222 127.1595)" font-family="'MyriadPro-Regular'" font-size="5.9269">Hayao Miyazaki website</text>
	</g>
	<line fill="none" stroke="#000000" x1="132.3" y1="71.6" x2="182.3" y2="71.6"/>
	<line fill="none" stroke="#000000" x1="39.3" y1="36.6" x2="86.3" y2="36.6"/>
	<line fill="none" stroke="#000000" x1="125.3" y1="99.6" x2="182.3" y2="99.6"/>
	<line fill="none" stroke="#000000" x1="136.3" y1="125.6" x2="182.3" y2="125.6"/>
	<polyline fill="none" stroke="#000000" points="86.3,9.6 67.8,9.6 67.8,126.6 86.3,126.6 	"/>
	<line fill="none" stroke="#000000" x1="86.3" y1="71.6" x2="67.3" y2="71.6"/>
	<line fill="none" stroke="#000000" x1="86.3" y1="99.6" x2="67.3" y2="99.6"/>
</g>
</svg>
